<svg version="1.1" id="Layer_1" xmlns="http://www.w3.org/2000/svg" xmlns:xlink="http://www.w3.org/1999/xlink" x="0px" y="0px"
	 width="100%" viewBox="0 0 522 89" enable-background="new 0 0 522 89" xml:space="preserve">
<path fill="#000000" opacity="1.000000" stroke="none" 
	d="
M243.214294,89.719238 
	C238.310745,90.000000 233.621490,90.000000 228.466125,90.000000 
	C226.115952,87.570496 226.299896,84.407837 225.070694,81.739746 
	C224.195404,79.839844 223.899841,77.589363 221.348877,76.488403 
	C218.119675,76.275581 215.257935,76.368690 212.004196,76.355003 
	C211.091232,76.359222 210.571472,76.353439 209.667053,76.340927 
	C208.529846,76.330093 207.777527,76.308197 206.665207,76.306686 
	C205.840073,76.320282 205.374969,76.335892 204.585602,76.422928 
	C201.971298,77.423065 202.986282,79.191605 203.242111,80.719849 
	C203.729233,83.629631 204.983582,86.431770 204.215897,89.741409 
	C202.285645,90.000000 200.571289,90.000000 198.428467,90.000000 
	C195.950714,87.569427 195.750626,84.465714 195.194641,81.576416 
	C194.457245,77.744377 192.398727,76.360893 188.612274,76.448410 
	C182.293930,76.594437 175.968109,76.507645 169.645462,76.471107 
	C166.049774,76.450325 162.847778,76.034187 163.026794,71.203316 
	C163.112015,68.903427 161.368866,68.602814 159.609299,68.534760 
	C156.782303,68.425430 153.947220,68.610184 151.125931,68.460632 
	C147.470535,68.266869 144.632751,68.781868 143.937469,73.265984 
	C143.488342,76.162567 140.762207,76.329208 138.394012,76.417290 
	C132.573853,76.633766 126.750526,76.384628 120.522736,76.452591 
	C119.599266,76.417870 119.081085,76.391769 118.200668,76.383133 
	C114.561386,76.444862 116.237839,78.297874 116.699303,79.632103 
	C117.845932,82.947380 120.693687,85.616364 120.217583,89.734177 
	C115.643097,90.000000 111.286201,90.000000 106.464645,90.000000 
	C104.680573,87.246201 107.231430,87.036842 108.608307,86.307617 
	C111.102882,84.986443 111.256950,83.337708 110.126007,80.977692 
	C106.962654,74.376556 106.210777,74.025223 99.352547,76.871368 
	C98.519379,77.070694 98.030617,77.142159 97.157860,77.224442 
	C96.000282,77.300056 95.222366,77.298096 94.043808,77.323135 
	C93.099068,77.349777 92.555222,77.361076 91.593277,77.400284 
	C86.610786,77.460243 82.046371,77.474747 77.054634,77.410484 
	C76.059540,77.393288 75.491821,77.386147 74.500435,77.382568 
	C72.953384,77.454475 71.831078,77.341164 70.290611,77.394058 
	C68.218552,77.435043 66.564369,77.386971 64.509056,77.360146 
	C58.740051,75.810745 53.839287,74.158623 47.676289,75.985184 
	C41.688507,77.759811 34.803883,76.270645 27.934204,76.509850 
	C26.025127,76.732681 24.529465,76.314339 22.637943,76.303841 
	C21.772957,76.297394 21.281147,76.286110 20.425838,76.270279 
	C19.346294,76.268974 18.631008,76.231628 17.566439,76.238297 
	C16.759384,76.245628 16.300949,76.243042 15.514761,76.254318 
	C13.059617,76.461212 13.805002,77.389603 14.582994,78.439819 
	C17.328831,82.146423 20.517239,85.400208 24.377460,88.427788 
	C24.470888,88.989227 24.451719,89.220963 24.216274,89.726349 
	C17.228285,90.000000 10.451332,89.847710 3.687611,90.080246 
	C1.225206,90.164894 0.889902,89.465118 0.938632,87.233101 
	C1.100823,79.804276 1.000000,72.369705 1.000000,64.468666 
	C2.166540,63.128483 3.315438,63.599743 4.206992,64.326546 
	C7.983069,67.404846 12.391773,67.609322 16.972130,67.545601 
	C25.133400,67.432053 33.300606,67.379166 41.458759,67.570229 
	C45.486786,67.664558 47.896557,66.535172 47.831467,62.108624 
	C47.816952,61.121433 48.142555,60.136932 48.245651,59.142651 
	C48.828354,53.523148 48.069965,52.618702 42.509399,52.502071 
	C38.179531,52.411259 33.841957,52.645370 29.518181,52.395344 
	C24.879791,52.127121 23.505379,50.871891 23.649509,46.193859 
	C23.895538,38.208439 25.215313,30.299561 25.807215,22.330322 
	C26.043770,19.145432 28.293293,17.814644 31.304514,17.624479 
	C34.632992,17.414280 37.967186,17.588858 41.296974,17.494190 
	C48.902405,17.277966 52.111076,14.140424 52.522320,6.540863 
	C52.612144,4.880883 52.539646,3.194719 53.737549,1.351907 
	C57.361286,1.000000 60.722576,1.000000 64.541931,1.000000 
	C66.018639,2.485389 65.112434,3.630419 64.117142,4.465343 
	C59.724827,8.149934 58.881737,13.288315 58.570160,18.461027 
	C57.839588,30.589691 56.716213,42.680439 55.592564,54.774315 
	C54.751514,63.826515 58.774086,68.426445 67.733658,68.536377 
	C76.563751,68.644714 85.396835,68.645554 94.226929,68.534744 
	C102.669876,68.428780 106.617195,64.706711 107.621361,56.267647 
	C109.254486,42.542637 108.965683,28.687698 110.450287,14.949244 
	C110.818016,11.546238 109.786438,8.353259 107.653572,5.581783 
	C106.756996,4.416767 105.499245,3.431377 105.784546,1.368147 
	C111.022095,1.000000 116.044182,1.000000 121.533142,1.000000 
	C123.743042,3.029844 123.258820,5.363506 122.884178,7.667088 
	C120.319511,23.436634 118.127182,39.264187 115.501839,55.024261 
	C115.255707,56.501770 114.975601,57.974766 114.785011,59.460407 
	C113.855881,66.703148 114.567154,67.502693 121.951561,67.527145 
	C125.113914,67.537613 128.276764,67.563492 131.438644,67.519478 
	C137.046356,67.441444 137.552780,67.071457 137.483276,61.606445 
	C137.417374,56.423409 137.925644,51.306503 138.580978,46.189789 
	C138.786346,44.586472 138.661835,42.784420 140.708755,41.901142 
	C143.657242,44.833916 143.190063,48.972763 144.408188,52.500000 
	C145.246780,54.928284 144.940170,58.416279 148.104843,59.040295 
	C152.470032,59.901035 157.062485,60.341808 161.344452,58.536430 
	C162.912781,57.875187 163.159317,55.856052 163.652756,54.268631 
	C164.738449,50.775913 165.598312,47.199417 167.326828,43.940361 
	C167.792542,43.062244 168.434036,41.994602 169.495636,42.111031 
	C170.903824,42.265461 171.065323,43.680698 171.177841,44.793774 
	C171.549255,48.468105 170.391418,52.043484 170.441422,55.725216 
	C170.620407,68.902695 169.189194,67.407898 182.218643,67.528557 
	C182.884369,67.534729 183.550171,67.529625 184.215942,67.529282 
	C193.808960,67.524437 194.274994,67.217957 193.399780,57.742111 
	C191.947144,42.014603 191.246307,26.231365 189.713745,10.510900 
	C189.426712,7.566515 189.020477,4.522871 190.741913,1.345406 
	C193.700012,1.000000 196.400024,1.000000 199.550018,1.000000 
	C201.924149,3.262421 201.475906,6.016578 201.556824,8.647839 
	C202.079361,25.642275 200.852661,42.603661 200.592453,59.583046 
	C200.473145,67.368767 200.635818,67.489685 208.309891,67.416039 
	C223.112274,67.273987 221.322662,69.351906 221.417160,54.473881 
	C221.500763,41.311569 221.403168,28.148247 221.452393,14.985570 
	C221.469223,10.486947 221.668991,5.992477 223.717438,1.372413 
	C228.356903,1.000000 232.713806,1.000000 237.535355,1.000000 
	C239.212799,3.417106 237.078812,4.256904 235.807266,5.344317 
	C233.103287,7.656749 231.729324,10.518991 231.546738,14.037553 
	C230.882675,26.833473 230.170029,39.623829 230.473969,52.450836 
	C230.735046,63.468586 234.656433,67.465096 245.668533,67.502769 
	C254.328232,67.532394 262.988556,67.565460 271.647797,67.485825 
	C276.859375,67.437904 277.076904,67.128036 276.718384,62.129730 
	C276.027161,52.492290 276.027161,52.499702 266.544220,52.485546 
	C263.380737,52.480824 260.217468,52.525265 257.053467,52.403828 
	C253.686951,52.274616 251.726868,50.718372 251.633194,47.233337 
	C251.413940,39.075420 251.455154,30.916389 251.610245,22.757742 
	C251.676605,19.267214 253.535309,17.673203 256.953857,17.575689 
	C260.617462,17.471188 264.285065,17.651131 267.942780,17.455660 
	C273.412903,17.163338 276.087189,14.463014 276.476929,9.040382 
	C276.654083,6.575841 276.146179,4.015911 277.736450,1.353423 
	C279.714355,1.000000 281.428711,1.000000 283.571533,1.000000 
	C285.817047,3.114531 285.422516,5.695457 285.427490,8.152445 
	C285.463470,25.938662 285.419617,43.725014 285.458984,61.511223 
	C285.473541,68.091965 285.931580,68.518333 292.599823,68.545326 
	C301.077271,68.579651 309.554962,68.541862 318.032471,68.560226 
	C321.040680,68.566742 324.006134,68.279358 326.933563,67.592186 
	C333.525909,66.044731 336.248383,62.812622 336.521454,56.129765 
	C336.616455,53.804955 336.463776,51.471989 336.566040,49.149536 
	C336.834808,43.044621 334.586761,38.461582 328.802795,35.950535 
	C325.432770,34.487473 325.236633,32.955837 328.478333,30.981718 
	C332.494843,28.535721 333.671814,24.522358 333.415710,20.206861 
	C333.050354,14.051133 332.597900,7.785462 326.576019,3.916903 
	C325.873993,3.465892 325.550476,2.632606 325.786743,1.370828 
	C332.687653,1.000000 339.375275,1.000000 346.531464,1.000000 
	C347.892975,2.194172 347.337982,3.298823 346.554688,4.147683 
	C342.309998,8.747753 341.820984,14.402185 342.579102,20.081556 
	C343.863586,29.703732 343.285645,39.337303 343.420227,48.966434 
	C343.467041,52.313461 343.821228,55.606449 344.497955,58.864655 
	C345.655762,64.438751 349.482086,68.152786 355.141541,68.378860 
	C365.606079,68.796860 376.093597,68.797752 386.557251,68.380867 
	C392.192169,68.156357 396.676361,63.000355 396.314331,56.539360 
	C395.552856,42.949276 394.924408,29.351540 394.107086,15.764983 
	C393.874817,11.904028 392.854126,8.233942 389.969574,5.327334 
	C389.034821,4.385419 388.365082,3.193141 388.777527,1.368395 
	C394.688049,1.000000 400.376068,1.000000 406.532043,1.000000 
	C407.573334,1.724471 407.760193,2.675057 407.241638,3.317195 
	C401.336823,10.629316 403.274994,19.239212 403.769684,27.324482 
	C404.327118,36.435005 404.624908,45.568024 405.373871,54.676323 
	C406.152985,64.151260 410.310974,68.499557 419.891754,68.542328 
	C428.540894,68.580948 437.192261,68.672760 445.839264,68.505592 
	C453.812958,68.351433 457.558289,64.781349 457.462738,56.774216 
	C457.325989,45.314518 455.813049,33.923386 455.081207,22.488768 
	C454.964996,20.672718 454.530365,18.866270 454.574280,17.033211 
	C454.682556,12.513015 453.518402,8.491371 450.235748,5.211848 
	C449.294983,4.271962 448.430023,3.229168 448.780701,1.370411 
	C452.692902,1.000000 456.385834,1.000000 460.539368,1.000000 
	C462.967041,3.520672 463.089081,6.601689 463.294067,9.540883 
	C464.519470,27.109158 466.157196,44.644775 467.387177,62.210461 
	C467.648010,65.935272 468.801910,67.731064 472.704651,67.554535 
	C476.522034,67.381859 480.354004,67.491837 484.178711,67.513512 
	C487.459961,67.532104 488.767487,65.926346 488.220917,62.817669 
	C487.440521,58.378986 487.592773,53.864742 487.001343,49.408791 
	C486.743561,47.466869 486.549133,45.101795 489.165283,44.520794 
	C491.603363,43.979340 492.734100,45.887077 493.525848,47.784924 
	C495.511536,52.544792 497.394226,57.359100 498.779785,62.323811 
	C499.845306,66.141563 502.022522,67.577362 505.996216,67.615776 
	C511.428436,67.668274 516.962036,66.558022 522.651550,68.739922 
	C523.000000,75.253891 522.923645,81.509285 523.047607,87.760719 
	C523.083679,89.578171 522.698303,90.138618 520.792419,90.053238 
	C516.850525,89.876640 512.895142,90.000000 508.472656,90.000000 
	C506.595673,87.624741 508.635559,86.456299 509.821960,85.085907 
	C511.524628,83.119202 513.630127,81.505318 515.157837,79.389954 
	C515.761780,78.553741 517.397278,77.533997 515.127075,76.302513 
	C514.349365,76.251472 513.898804,76.240433 513.095825,76.243675 
	C512.022644,76.261627 511.301666,76.245056 510.206970,76.277237 
	C509.326599,76.304207 508.820129,76.314087 507.924713,76.328247 
	C506.486359,76.327286 505.437256,76.350227 503.989471,76.377281 
	C492.149109,76.431686 480.707306,76.438232 469.266022,76.374870 
	C466.353790,76.358749 463.206177,76.810188 461.698883,73.107773 
	C460.980530,71.343300 459.774719,72.639153 458.906067,73.247780 
	C456.707581,74.788101 454.302979,75.870270 451.371826,76.796829 
	C450.717682,76.970657 450.452911,77.028908 449.785553,77.144501 
	C448.307648,77.295158 447.228516,77.264816 445.748840,77.308914 
	C445.077301,77.319283 444.808319,77.321587 444.135254,77.326447 
	C442.647125,77.347488 441.562988,77.314049 440.062073,77.350113 
	C439.363922,77.368332 439.082733,77.374405 438.376099,77.386978 
	C429.835022,77.340134 421.709320,77.939079 413.203552,76.916367 
	C411.561523,76.347176 410.285095,75.974724 408.768433,75.193840 
	C408.014343,74.780815 407.609711,74.513741 406.937561,74.022491 
	C405.765717,73.137604 404.825745,72.524681 403.668396,71.649643 
	C402.293762,70.353867 401.281738,68.619270 399.408264,71.052383 
	C398.751495,71.738564 398.293976,72.175140 397.655029,72.879822 
	C397.271423,73.247063 397.104645,73.380638 396.655884,73.668106 
	C395.186523,74.304131 393.951538,74.674347 392.547424,75.490135 
	C392.057190,75.754814 391.856842,75.857536 391.345276,76.102600 
	C389.946564,76.705788 388.809601,76.974991 387.277283,77.161697 
	C386.666870,77.222633 386.419739,77.241447 385.797089,77.281349 
	C384.124786,77.362114 382.838898,77.540070 381.133301,77.663284 
	C371.808746,77.179565 362.882355,77.781525 353.562653,77.217598 
	C349.911591,76.186241 346.631989,75.303925 343.510376,73.119003 
	C342.112854,72.078735 341.400330,70.349159 339.233887,71.453217 
	C337.051941,72.447014 335.298279,73.543961 333.149719,74.686371 
	C331.611328,75.321075 330.370758,75.681862 328.719147,76.117935 
	C328.033173,76.249084 327.752899,76.288162 327.044434,76.381058 
	C314.960419,76.565956 303.303894,76.488945 291.648010,76.549149 
	C286.009430,76.578262 285.708588,76.953674 285.525970,82.450508 
	C285.449249,84.760811 285.788025,87.138504 284.268524,89.640808 
	C282.285645,90.000000 280.571289,90.000000 278.428467,90.000000 
	C276.382568,87.165009 277.637756,84.154694 277.569702,81.242653 
	C277.491302,77.887581 276.165955,76.460274 272.810547,76.475868 
	C264.538635,76.514328 256.265961,76.501480 247.573242,76.475922 
	C246.876938,76.456345 246.601013,76.436417 245.914276,76.403358 
	C244.431152,76.365814 243.358765,76.344070 241.896606,76.295395 
	C240.995422,76.265526 240.486526,76.221878 239.611832,76.097321 
	C238.532761,75.896553 237.845108,75.668922 236.823502,75.355927 
	C234.162857,74.440201 233.054642,75.242622 233.325577,77.718979 
	C233.557053,79.834831 234.163895,81.823486 235.880951,83.671021 
	C236.391922,84.216553 236.684448,84.524284 237.213425,85.036934 
	C238.245667,85.929153 239.139206,86.432877 240.489258,86.750259 
	C241.025299,86.880959 241.241608,86.938164 241.778488,87.113586 
	C242.997894,87.692818 243.582977,88.342888 243.214294,89.719238 
z"/>
<path fill="#FFFFFF" opacity="1.000000" stroke="none" 
	d="
M190.531342,1.000000 
	C191.296051,14.629880 192.538544,28.183817 193.908585,41.743450 
	C194.719757,49.772038 194.603012,57.891460 195.037933,65.962799 
	C195.165298,68.326347 194.480331,69.116974 192.027451,69.056129 
	C185.372086,68.891037 178.702774,68.817894 172.053741,69.081253 
	C169.032089,69.200935 168.936890,67.793900 168.971085,65.543526 
	C169.088272,57.833591 168.612335,50.106079 169.941269,42.382065 
	C167.461334,46.429169 165.921371,50.744705 165.049576,55.238720 
	C164.270508,59.254749 162.846970,62.025452 158.051437,61.023205 
	C157.253845,60.856510 156.391495,60.999718 155.559067,60.999718 
	C143.991989,60.999729 143.993637,60.999447 142.004700,49.462666 
	C141.601028,47.121239 141.179672,44.782856 140.549957,42.473507 
	C139.559189,50.117081 138.506577,57.720798 139.038025,65.400337 
	C139.224640,68.097023 138.571259,69.184784 135.588394,69.072266 
	C129.270920,68.833954 122.927147,68.776932 116.616196,69.089958 
	C113.263451,69.256256 112.945908,67.933350 112.928078,65.111229 
	C112.873016,56.394447 115.456459,48.062519 116.355515,39.478668 
	C117.382156,29.676641 119.389191,19.976110 121.012077,10.238458 
	C121.487907,7.383421 122.106377,4.552159 122.329735,1.355000 
	C131.354233,1.000000 140.708450,1.000000 150.531342,1.000000 
	C153.909424,5.570042 153.763962,11.078680 155.789673,16.224619 
	C158.340836,11.466160 158.716629,5.985717 161.767029,1.253057 
	C171.354233,1.000000 180.708450,1.000000 190.531342,1.000000 
z"/>
<path fill="#FFFFFF" opacity="1.000000" stroke="none" 
	d="
M388.531342,1.000000 
	C387.918518,2.219814 389.190857,2.825402 389.810089,3.224968 
	C395.064758,6.615444 395.866486,12.280072 395.811554,17.462093 
	C395.702545,27.744543 397.397644,37.912216 397.066650,48.188160 
	C396.922913,52.649860 398.958557,57.010406 397.075287,61.641811 
	C394.841278,67.135605 391.268402,69.995308 385.294403,69.998360 
	C375.472382,70.003380 365.650238,70.031464 355.828369,69.989174 
	C348.612061,69.958107 344.185089,65.314522 342.858185,58.179375 
	C341.721313,52.066059 341.887817,46.002083 342.105408,39.952126 
	C342.398071,31.817251 341.157471,23.805691 340.940369,15.721165 
	C340.780548,9.770450 342.647675,5.035632 347.288483,1.303468 
	C360.687561,1.000000 374.375122,1.000000 388.531342,1.000000 
z"/>
<path fill="#FFFFFF" opacity="1.000000" stroke="none" 
	d="
M105.531342,1.000000 
	C107.336777,4.123209 110.737312,5.738495 111.377319,9.641220 
	C111.891998,12.779735 112.203514,15.768142 111.519005,18.774086 
	C111.261047,19.906855 110.998863,20.998880 111.005569,22.146107 
	C111.076950,34.350498 109.845116,46.482906 108.992691,58.635750 
	C108.567627,64.695915 102.813820,69.946304 96.465546,69.984764 
	C86.969246,70.042297 77.461113,69.708603 67.978554,70.074142 
	C56.384628,70.521080 52.627033,62.700024 54.134640,53.177158 
	C55.136642,46.847973 55.041584,40.459122 56.013435,34.161247 
	C57.035442,27.538319 57.103657,20.823954 57.725567,14.169844 
	C58.283199,8.203520 61.309692,4.746272 65.287384,1.294263 
	C78.354225,1.000000 91.708458,1.000000 105.531342,1.000000 
z"/>
<path fill="#FFFFFF" opacity="1.000000" stroke="none" 
	d="
M448.531342,1.000000 
	C448.618256,4.568998 453.083069,4.210030 453.921417,7.177556 
	C454.453766,9.061961 455.794678,10.930498 455.943787,12.952516 
	C456.728088,23.591377 457.058899,34.271248 458.134308,44.877354 
	C458.565643,49.131310 459.010437,53.350830 458.997498,57.619972 
	C458.973480,65.528954 454.562195,69.979446 446.694000,69.995056 
	C436.881104,70.014519 427.068146,70.012619 417.255249,69.995346 
	C410.284973,69.983078 404.334381,64.822746 404.065918,57.880550 
	C403.499512,43.234161 402.118896,28.636080 401.824005,13.965574 
	C401.712921,8.440398 404.300720,5.069119 407.287109,1.289167 
	C420.687561,1.000000 434.375122,1.000000 448.531342,1.000000 
z"/>
<path fill="#FFFFFF" opacity="1.000000" stroke="none" 
	d="
M325.531342,1.000000 
	C324.903046,3.412753 327.407379,3.063496 328.264648,3.612637 
	C335.567230,8.290590 334.931183,15.832652 334.833344,22.792576 
	C334.760193,27.995707 332.482574,32.618206 325.564880,33.350643 
	C336.211456,36.202087 338.777527,41.981804 338.015259,49.871956 
	C337.903595,51.027790 337.999756,52.203705 337.999756,53.370327 
	C337.999756,65.239754 333.950104,69.672432 322.092651,69.943726 
	C310.765656,70.202881 299.427917,69.964386 288.095337,70.026955 
	C285.587585,70.040794 283.953949,69.629829 283.965454,66.542824 
	C284.044220,45.377441 284.019073,24.211687 284.061371,3.046119 
	C284.062225,2.618996 284.473938,2.192691 284.346985,1.383001 
	C297.687561,1.000000 311.375122,1.000000 325.531342,1.000000 
z"/>
<path fill="#FFFFFF" opacity="1.000000" stroke="none" 
	d="
M523.000000,68.539368 
	C516.171692,68.999893 509.342499,68.938911 502.515533,69.034988 
	C500.330902,69.065727 499.253998,68.721527 498.508850,66.183601 
	C496.710327,60.057846 494.076141,54.181690 492.122040,48.094715 
	C491.547394,46.304726 491.187927,44.611790 489.136200,45.116772 
	C486.796570,45.692616 487.851379,48.036186 488.147430,49.290855 
	C489.470490,54.897758 489.078247,60.657948 490.000397,66.282539 
	C490.366821,68.517464 489.364990,69.091164 487.219727,69.045586 
	C481.060364,68.914726 474.894165,68.904877 468.735443,69.049530 
	C466.510864,69.101784 466.061859,68.359962 465.936401,66.231415 
	C465.057159,51.313202 464.466492,36.351513 462.751251,21.523132 
	C462.135590,16.200893 463.109619,10.681809 461.092560,5.472794 
	C460.686096,4.423140 460.518646,2.821346 461.331055,1.359466 
	C468.354248,1.000000 475.708496,1.000000 483.531372,1.000000 
	C486.157532,3.431123 486.314575,6.459814 486.348816,9.446804 
	C486.395844,13.546911 487.301788,17.496487 487.830078,21.513636 
	C490.242462,15.022443 488.494385,7.899506 491.759094,1.299279 
	C499.354248,1.000000 506.708496,1.000000 514.531372,1.000000 
	C517.414429,5.074920 517.640930,9.409771 516.627686,13.930879 
	C515.431091,19.270197 513.823547,24.499153 512.381653,29.770216 
	C511.449738,33.176971 511.793365,36.115505 513.476440,39.278412 
	C516.507141,44.973904 519.575684,50.654812 522.743896,56.707489 
	C523.000000,60.692909 523.000000,64.385818 523.000000,68.539368 
z"/>
<path fill="#FFFFFF" opacity="1.000000" stroke="none" 
	d="
M53.531342,1.000000 
	C53.999905,3.163671 53.999664,5.327342 53.999744,7.491013 
	C54.000004,14.680048 49.737171,18.979475 42.576557,18.997902 
	C38.588558,19.008163 34.599926,19.040798 30.612724,18.983561 
	C28.519505,18.953510 26.935484,19.412260 27.006613,21.921120 
	C27.244293,30.305004 25.455626,38.521072 24.918594,46.845390 
	C24.681677,50.517792 25.971937,51.244476 29.336473,51.079227 
	C35.138348,50.794262 40.969379,51.142673 46.777954,50.936840 
	C49.445747,50.842304 50.294277,51.697521 50.027637,54.272099 
	C49.589863,58.499081 49.204697,62.740089 49.052830,66.984322 
	C48.981972,68.964622 47.980373,69.014229 46.529388,69.011551 
	C34.399185,68.989159 22.267872,69.088638 10.139298,68.946365 
	C6.329109,68.901672 4.036350,65.927345 1.310260,63.710609 
	C1.000000,55.312435 1.000000,46.624874 1.000000,37.468655 
	C3.094748,33.001747 1.695276,28.594955 2.422769,24.406342 
	C2.981787,21.187735 3.224946,17.870487 3.595046,14.595119 
	C4.306772,8.296377 7.320413,3.790144 13.688298,1.262775 
	C27.020895,1.000000 40.041790,1.000000 53.531342,1.000000 
z"/>
<path fill="#FFFFFF" opacity="1.000000" stroke="none" 
	d="
M277.531342,1.000000 
	C277.999908,3.835416 278.005157,6.670843 277.998657,9.506244 
	C277.985352,15.320541 274.407440,18.981569 268.710083,18.997355 
	C264.379364,19.009352 260.043762,19.121498 255.719818,18.950142 
	C253.464813,18.860775 252.929626,19.658058 252.955368,21.791639 
	C253.061783,30.618431 253.073074,39.448277 252.949234,48.274612 
	C252.917801,50.514332 253.639328,51.088696 255.785248,51.045509 
	C262.112244,50.918182 268.447754,51.136276 274.770966,50.936134 
	C277.448151,50.851402 278.113617,51.713001 278.071594,54.281620 
	C278.010284,58.033154 277.558258,61.809238 278.900574,65.551796 
	C279.620026,67.557663 279.105652,69.144066 276.008148,69.086479 
	C264.352448,68.869804 252.689468,69.084488 241.030914,68.967201 
	C234.256805,68.899055 229.113556,63.110901 229.014893,55.626575 
	C228.824783,41.205837 228.990570,26.789839 230.004974,12.395762 
	C230.395416,6.855402 234.518280,4.248481 238.289688,1.304151 
	C251.020889,1.000000 264.041779,1.000000 277.531342,1.000000 
z"/>
<path fill="#FFFFFF" opacity="1.000000" stroke="none" 
	d="
M223.531372,1.000000 
	C222.058044,22.552111 223.340485,44.154179 223.062622,65.731720 
	C223.029388,68.312042 222.411057,69.149902 219.757767,69.061935 
	C213.768188,68.863342 207.767334,68.975365 201.771439,69.015350 
	C200.150940,69.026146 198.906738,69.080589 198.963486,66.760185 
	C199.490128,45.227829 199.924011,23.693203 200.398102,2.159527 
	C200.401047,2.026246 200.591217,1.897090 200.346985,1.383004 
	C207.687576,1.000000 215.375168,1.000000 223.531372,1.000000 
z"/>
<path fill="#D49B1F" opacity="1.000000" stroke="none" 
	d="
M118.734024,75.354088 
	C125.603073,75.076630 132.272339,74.860046 138.927505,75.076584 
	C142.200775,75.183083 143.578598,74.200661 142.995163,70.931152 
	C142.368378,67.418564 144.169296,66.806259 147.213120,66.944756 
	C151.869064,67.156601 156.559479,67.250282 161.201736,66.921120 
	C164.898102,66.659027 165.963394,68.501976 164.746414,71.241722 
	C163.075745,75.002831 164.865234,75.048645 167.667236,75.024582 
	C175.664795,74.955910 183.664017,75.060562 191.661102,74.968201 
	C194.404297,74.936516 196.122009,75.470390 196.057404,78.764412 
	C195.988052,82.299904 198.849533,85.472878 197.775208,89.614944 
	C190.312424,90.000000 182.624832,90.000000 174.468628,90.000000 
	C173.006287,89.072014 172.328110,87.923126 171.871750,86.670380 
	C171.092072,84.530052 169.851334,84.569649 167.660019,84.747215 
	C161.039551,85.283684 154.037857,87.250542 148.202560,81.798103 
	C147.444794,84.338539 147.754883,87.095230 146.226501,89.735626 
	C140.977905,90.000000 135.955811,90.000000 130.466858,90.000000 
	C129.039581,89.217812 129.060226,87.979935 128.444305,86.698257 
	C128.130234,86.185524 127.961212,85.945534 127.798073,85.737762 
	C127.969719,86.007347 128.137100,86.243576 128.438507,86.745193 
	C128.900146,87.859741 128.943329,88.691589 128.222931,89.748405 
	C127.250000,90.000000 126.500000,90.000000 125.375000,90.000000 
	C124.036293,89.185791 123.602348,87.940338 122.425735,86.894341 
	C120.984932,85.402824 120.641472,83.676994 119.717285,81.898087 
	C119.248680,80.842888 119.058014,80.025482 118.673325,78.943222 
	C118.498940,78.450470 118.433464,78.251190 118.299774,77.743332 
	C118.158173,76.793205 118.224953,76.174248 118.734024,75.354088 
z"/>
<path fill="#D39B20" opacity="1.000000" stroke="none" 
	d="
M439.854004,76.618156 
	C441.143097,76.335648 442.146362,76.195503 443.510010,76.198196 
	C444.120850,76.577316 444.413757,76.734291 444.941925,76.645599 
	C446.133575,76.337822 447.132568,76.196091 448.490906,76.196152 
	C449.293701,77.279785 448.473145,78.032761 448.447388,78.900742 
	C448.606842,78.180206 449.185883,77.718857 449.810059,76.906181 
	C454.023743,73.710396 459.377991,72.876457 462.693237,67.934517 
	C461.431671,75.112709 465.244690,75.252922 470.257874,75.103615 
	C481.172760,74.778542 492.104736,75.027199 503.481567,75.155106 
	C504.172272,75.949341 503.925323,76.528069 503.335052,77.311951 
	C502.149933,78.297386 501.078278,78.933067 500.195679,80.228172 
	C499.891357,80.631958 499.764832,80.789017 499.428436,81.160545 
	C498.920441,81.630791 498.627075,81.891846 498.151306,82.378159 
	C497.849030,82.752525 497.733612,82.906624 497.447144,83.293747 
	C497.156342,83.678177 497.036591,83.829590 496.539124,84.420799 
	C495.783295,85.303108 495.414398,85.752716 494.935852,86.493973 
	C494.660522,86.911926 494.545013,87.076996 494.240845,87.480431 
	C493.519470,88.338692 492.983521,88.955688 492.213959,89.777664 
	C490.285645,90.000000 488.571289,90.000000 486.428467,90.000000 
	C484.394958,88.744743 483.911011,86.798859 483.176636,84.851501 
	C481.323456,86.417015 480.246338,88.322975 478.238770,89.759399 
	C469.312439,90.000000 460.624878,90.000000 451.468658,90.000000 
	C449.327942,87.881119 449.574219,85.762253 450.346161,83.975296 
	C449.349609,85.584106 447.932892,87.815674 444.801025,88.350433 
	C444.029785,88.204796 443.706116,87.954063 443.561188,87.263428 
	C443.533569,87.031105 443.628906,86.621254 443.589233,86.711067 
	C443.424805,87.143524 443.409668,87.516045 443.083557,88.041916 
	C442.802673,88.698975 441.941315,87.705750 442.239349,88.879074 
	C442.396545,89.284225 442.404114,89.465080 442.205872,89.822968 
	C441.555542,90.000000 441.111115,90.000000 440.333313,90.000000 
	C439.701813,89.697266 439.337921,89.529236 438.607666,89.425461 
	C437.663788,89.201454 437.045258,89.168251 436.232819,89.774887 
	C435.555542,90.000000 435.111115,90.000000 434.333313,90.000000 
	C433.547607,89.593636 432.993591,89.305183 432.510071,88.521896 
	C432.385590,88.030540 432.369476,87.826492 432.398651,87.319069 
	C432.565704,86.626122 432.712372,86.246162 433.012695,85.599335 
	C433.234589,85.141228 433.327911,84.959694 433.568665,84.507278 
	C433.817749,84.055443 433.919373,83.874489 434.184265,83.424614 
	C434.470642,82.983627 434.593719,82.811569 434.926239,82.399620 
	C436.042114,81.255348 436.852661,80.274559 437.680206,78.900299 
	C437.962463,78.445633 438.079590,78.266342 438.390076,77.830032 
	C438.870270,77.252029 439.196350,76.978584 439.854004,76.618156 
z"/>
<path fill="#D49B1F" opacity="1.000000" stroke="none" 
	d="
M284.468658,90.000000 
	C284.434906,85.129654 281.837097,78.593452 284.995972,75.841423 
	C287.775177,73.420151 294.144501,75.038673 298.929016,75.017509 
	C308.230469,74.976357 317.532410,75.036430 327.280334,75.127457 
	C328.464600,75.343651 328.655487,75.911972 328.770508,76.846832 
	C328.739807,77.350693 328.706665,77.548882 328.588867,78.031830 
	C328.245972,79.042473 328.026459,79.778366 327.883636,80.826813 
	C327.792755,81.291298 327.747040,81.474709 327.611389,81.924713 
	C327.394012,82.540329 327.279175,82.893379 327.136292,83.525574 
	C327.032501,84.355362 326.975189,84.911217 326.884918,85.747208 
	C326.801819,86.208969 326.756805,86.391098 326.615906,86.836182 
	C326.299988,87.607468 326.082306,88.116737 325.814667,88.904022 
	C325.610321,89.313522 325.503143,89.463577 325.197968,89.806808 
	C323.933319,90.000000 322.866669,90.000000 321.399994,90.000000 
	C320.666138,89.634575 320.502869,89.208542 320.600464,88.360069 
	C321.151581,86.676758 320.864929,85.203316 321.485931,83.549255 
	C321.980316,82.006653 322.501862,80.823029 322.574615,79.084900 
	C322.423767,80.555084 322.116882,81.548294 321.614380,82.839737 
	C321.020264,84.497345 321.049866,85.923042 320.668152,87.638000 
	C320.505005,88.457596 320.463623,88.936798 320.215881,89.708420 
	C308.312439,90.000000 296.624878,90.000000 284.468658,90.000000 
z"/>
<path fill="#D49B1F" opacity="1.000000" stroke="none" 
	d="
M245.615692,75.447365 
	C255.789139,75.071533 265.708649,75.104599 275.625366,74.953209 
	C278.122223,74.915085 279.409393,75.508766 279.005035,78.224487 
	C278.461334,81.876122 280.264526,85.832214 277.788879,89.603638 
	C267.312439,90.000000 256.624878,90.000000 245.468658,90.000000 
	C244.858856,89.753227 244.717712,89.506462 244.528549,88.836227 
	C245.083206,84.226051 243.894028,79.914406 245.615692,75.447365 
z"/>
<path fill="#000000" opacity="1.000000" stroke="none" 
	d="
M523.000000,56.531342 
	C519.472351,56.641022 519.603088,53.057621 518.170349,51.041794 
	C515.046448,46.646225 513.012146,41.501621 510.526550,36.697689 
	C508.394775,32.577732 511.748962,28.034489 512.742432,23.704950 
	C514.410706,16.435045 517.902527,9.340475 514.674377,1.351113 
	C523.000000,1.000000 523.000000,1.000000 523.000000,8.889810 
	C523.000000,24.614101 523.000000,40.338390 523.000000,56.531342 
z"/>
<path fill="#D39B1F" opacity="1.000000" stroke="none" 
	d="
M27.165504,76.468163 
	C29.776918,73.789787 32.973942,75.273582 35.953625,75.073021 
	C40.234715,74.784874 44.563179,74.789307 48.845863,75.065376 
	C52.317616,75.289169 53.816860,74.189575 52.784241,69.951225 
	C56.372917,72.627342 59.131699,75.484192 63.464325,76.223648 
	C66.714279,79.661118 69.707535,82.917549 70.334778,87.817902 
	C66.774445,89.650185 65.229004,86.641983 62.750729,85.011276 
	C61.763802,86.358147 62.481247,88.240791 61.229164,89.740097 
	C53.312424,90.000000 45.624847,90.000000 37.468636,90.000000 
	C36.857689,89.875267 36.715374,89.750526 36.542747,89.343704 
	C36.527821,88.881149 36.543201,88.700676 36.555779,88.262558 
	C36.552982,88.004906 36.438271,87.523575 36.325874,87.307549 
	C36.213478,87.091522 35.914124,86.703659 35.561569,86.345650 
	C35.083317,85.867836 34.957611,85.748024 34.450699,85.247421 
	C33.811966,84.580727 33.564884,84.285995 33.126289,83.742126 
	C32.386978,82.815521 31.788168,82.185722 30.939487,81.358215 
	C30.337132,80.682816 30.011421,80.190216 29.486961,79.511627 
	C29.202993,79.170212 29.089876,79.035751 28.808941,78.703201 
	C28.529274,78.375557 28.417423,78.246010 27.970455,77.732651 
	C27.532881,77.213562 27.430426,77.078293 27.165504,76.468163 
z"/>
<path fill="#D39B1F" opacity="1.000000" stroke="none" 
	d="
M351.755127,75.968315 
	C360.166229,75.928268 368.296539,75.928146 376.425537,76.029564 
	C378.017029,76.049423 379.754028,75.431168 381.585022,76.852509 
	C382.084747,77.192131 382.191986,77.373436 382.253815,77.866745 
	C381.928528,78.730705 381.528198,79.209557 381.118896,80.033051 
	C380.907959,80.486916 380.826233,80.669090 380.628632,81.125671 
	C380.301575,81.958755 380.128235,82.528091 379.976990,83.420479 
	C379.832733,84.127167 379.699158,84.517914 379.369019,85.165779 
	C377.968506,86.594139 377.424438,88.221527 376.216797,89.773895 
	C366.979095,90.000000 357.958221,90.000000 348.468658,90.000000 
	C346.865662,88.926384 346.866119,87.532013 346.933350,85.792366 
	C347.001953,85.241859 347.042419,85.025703 347.174744,84.500107 
	C347.344452,83.995186 347.422394,83.799721 347.629272,83.324738 
	C347.847748,82.866028 347.937286,82.686829 348.163391,82.246872 
	C348.565277,81.479462 348.815918,80.966454 349.054199,80.144142 
	C349.181396,79.690948 349.236755,79.510452 349.395782,79.065720 
	C349.738617,78.282974 350.012451,77.782379 350.437561,77.034698 
	C350.840790,76.487808 351.135345,76.239708 351.755127,75.968315 
z"/>
<path fill="#D39A20" opacity="1.000000" stroke="none" 
	d="
M435.230377,83.046234 
	C435.056366,83.327866 435.039551,83.393211 435.033630,83.426422 
	C434.898315,83.868858 434.696289,84.238411 434.198944,84.796585 
	C433.976105,85.024826 433.996185,84.997940 434.004944,84.983612 
	C433.456818,85.481171 433.491272,86.239082 433.096619,87.198044 
	C432.970764,87.525269 432.981720,87.625748 432.980957,87.676285 
	C432.670532,88.515823 432.008270,89.006714 431.212891,89.782501 
	C423.312408,90.000000 415.624847,90.000000 407.468628,90.000000 
	C406.561615,89.540390 406.083008,89.117867 405.561890,88.314201 
	C405.200317,87.415581 405.130188,86.782700 405.208038,85.820618 
	C405.412506,84.886444 405.680664,84.311470 406.099152,83.457008 
	C406.351654,82.993584 406.461700,82.812782 406.760925,82.376564 
	C407.353699,81.627579 407.787476,81.159065 408.355591,80.381264 
	C409.597778,78.692520 410.040833,76.857674 411.766479,75.499786 
	C420.644867,76.848389 429.343903,75.539955 438.429352,76.195526 
	C439.308380,76.561142 439.475128,76.921570 439.219238,77.676125 
	C439.028931,77.951881 438.997101,77.997269 438.979401,78.018593 
	C437.449646,79.369148 436.842499,81.379707 435.230377,83.046234 
z"/>
<path fill="#D49B1F" opacity="1.000000" stroke="none" 
	d="
M204.375000,90.000000 
	C203.107391,86.232147 202.182144,82.471588 201.337250,78.693062 
	C200.966537,77.035194 199.964432,74.935173 203.583191,75.145660 
	C204.373947,75.380440 204.762558,75.523994 205.441315,75.807587 
	C206.088898,76.111488 206.424332,76.312958 206.881958,76.766479 
	C207.047287,76.952522 207.037460,77.448227 207.260193,77.315025 
	C207.763702,76.926620 208.086639,76.740967 208.742096,76.546349 
	C209.890015,76.460274 210.722672,76.348595 211.876892,76.100632 
	C215.269394,75.750008 218.382278,76.486748 221.703629,75.370064 
	C225.401993,76.968002 228.176758,84.022758 227.768768,89.623833 
	C221.978851,90.000000 215.957703,90.000000 209.468277,90.000000 
	C208.526077,89.597488 208.165314,88.732155 207.189941,89.801964 
	C206.250000,90.000000 205.500000,90.000000 204.375000,90.000000 
z"/>
<path fill="#D39B1F" opacity="1.000000" stroke="none" 
	d="
M75.834854,76.457733 
	C81.037300,76.179070 86.021858,76.101105 91.464188,76.088387 
	C92.610954,76.677078 93.306793,77.192703 94.070786,78.124504 
	C94.389069,78.578140 94.504608,78.768951 94.760315,79.265228 
	C95.555725,81.486000 96.231850,83.390549 97.889717,85.168976 
	C98.255455,85.624443 98.387657,85.819778 98.653519,86.345840 
	C99.015656,87.640793 99.000969,88.576881 98.233093,89.726425 
	C91.645599,90.000000 85.291206,90.000000 78.468399,90.000000 
	C77.462326,89.403893 76.803246,88.931526 76.090546,88.078354 
	C75.778015,87.671120 75.659004,87.502098 75.379105,87.065552 
	C74.911880,86.242767 74.633430,85.672623 74.160019,84.834351 
	C73.009033,81.798325 70.129013,80.056038 70.055054,76.580269 
	C71.203087,76.191765 72.211487,76.115410 73.588509,76.141647 
	C74.527008,76.315765 74.754913,77.757690 75.834854,76.457733 
z"/>
<path fill="#000000" opacity="1.000000" stroke="none" 
	d="
M146.468658,90.000000 
	C145.131775,86.360657 147.407990,83.111031 146.979553,78.054955 
	C152.550903,86.975479 160.310822,83.658073 167.058472,83.820358 
	C171.714508,83.932350 171.730850,83.212921 174.110535,88.505142 
	C174.245941,88.806290 174.418503,89.090752 174.286880,89.691490 
	C164.979111,90.000000 155.958206,90.000000 146.468658,90.000000 
z"/>
<path fill="#CD9822" opacity="1.000000" stroke="none" 
	d="
M497.001068,83.088684 
	C496.995178,82.788818 496.995148,82.397476 496.995728,82.201813 
	C497.432251,81.586349 498.018097,81.531929 498.776184,81.181160 
	C498.994385,80.996880 499.000000,80.999695 498.998413,80.996475 
	C500.150909,79.772545 501.608490,78.853279 502.749146,77.175217 
	C503.203064,76.519951 503.455383,76.108360 503.820557,75.482819 
	C504.999542,75.196373 506.065704,75.123886 507.501587,75.209496 
	C508.162933,75.931358 507.710297,77.001099 507.926544,76.998459 
	C508.675415,76.989304 508.984161,76.117889 509.783295,75.463470 
	C510.754028,75.182137 511.484924,75.106689 512.571838,75.137123 
	C513.339722,75.837524 513.868103,75.952141 514.761841,75.441788 
	C516.304810,74.956306 517.587402,74.687538 518.998901,75.594154 
	C516.611450,81.445335 511.001129,84.602417 507.722961,89.717102 
	C505.299988,90.000000 502.599976,90.000000 499.449982,90.000000 
	C497.781494,88.330597 498.906403,87.433624 500.419128,86.385956 
	C500.893768,86.078636 501.080048,85.954796 501.588989,85.902985 
	C502.234833,86.275826 502.574951,86.558022 502.985626,86.727898 
	C503.269531,86.845337 503.680115,86.902061 503.823059,86.698380 
	C504.064941,86.353775 503.868256,86.243561 503.459869,86.525314 
	C503.451050,86.531395 503.294189,86.528511 502.734070,86.482895 
	C502.000488,86.166580 501.723297,85.328987 500.763000,86.186768 
	C498.911499,86.864418 498.104797,88.119949 497.224335,89.760773 
	C496.250000,90.000000 495.500000,90.000000 494.375000,90.000000 
	C493.402191,89.307770 493.222137,88.526917 493.709442,87.281883 
	C493.917694,86.915100 493.945496,86.495918 493.956757,86.286163 
	C494.555634,85.560562 495.323944,85.232094 495.831787,84.210297 
	C496.008911,83.970726 496.007935,84.006790 495.989929,84.005661 
	C496.307129,83.782745 496.652039,83.577255 497.001068,83.088684 
z"/>
<path fill="#D09921" opacity="1.000000" stroke="none" 
	d="
M93.745575,76.450073 
	C94.752762,76.097427 95.532196,76.074883 96.673279,76.201324 
	C97.467682,76.391838 97.844078,76.563675 98.348114,77.115753 
	C98.941086,78.107933 99.162018,78.947632 99.982727,79.723557 
	C100.146423,79.924789 100.260216,80.400139 100.253746,80.148544 
	C99.811943,79.288048 99.241074,78.766678 98.940048,77.710144 
	C98.793114,77.203217 98.736626,76.998795 98.856339,76.529480 
	C100.583839,75.423172 102.126732,74.565605 103.690956,73.748901 
	C104.253967,73.454926 104.857063,73.094536 105.461555,73.053345 
	C106.675339,72.970657 112.492851,81.155670 112.739113,83.388687 
	C113.051109,86.217789 110.381371,86.475998 108.792542,87.609077 
	C107.786324,88.326645 106.087555,87.786430 105.742630,89.670242 
	C104.285645,90.000000 102.571281,90.000000 100.428467,90.000000 
	C98.880165,89.088036 99.065544,87.578125 98.173981,86.211525 
	C97.966675,85.956436 97.947914,85.976257 97.945671,85.960983 
	C96.560463,83.989807 95.783089,81.696648 94.283669,79.434036 
	C94.100220,79.164627 94.048904,79.101021 94.031921,79.063843 
	C93.485344,78.358368 93.306297,77.612480 93.745575,76.450073 
z"/>
<path fill="#000000" opacity="1.000000" stroke="none" 
	d="
M13.523338,1.000000 
	C15.093472,3.401570 12.593398,3.131934 11.742049,3.597181 
	C7.310467,6.018961 5.443082,9.756272 4.961082,14.613805 
	C4.251543,21.764435 2.847187,28.845373 2.908506,36.076672 
	C2.912799,36.582932 2.154978,37.095661 1.375776,37.302692 
	C1.000000,25.937708 1.053532,14.874928 0.952653,3.813555 
	C0.933581,1.722323 1.024839,0.643808 3.643720,0.922443 
	C6.745676,1.252474 9.909607,1.000000 13.523338,1.000000 
z"/>
<path fill="#000000" opacity="1.000000" stroke="none" 
	d="
M491.555847,1.000000 
	C491.331604,8.437720 490.610229,15.871343 490.034393,23.316225 
	C489.900574,25.046474 488.946289,24.968170 487.737305,25.013607 
	C485.522766,25.096834 486.151306,23.494234 485.991241,22.292276 
	C485.078003,15.434421 485.846344,8.360654 483.677643,1.352796 
	C486.370575,1.000000 488.741119,1.000000 491.555847,1.000000 
z"/>
<path fill="#C99524" opacity="1.000000" stroke="none" 
	d="
M30.598522,79.677765 
	C31.560877,81.198036 33.562286,81.287209 33.920860,83.288483 
	C34.117271,83.969269 34.327110,84.302879 34.807964,84.804657 
	C35.027805,85.005005 34.994114,85.006752 34.996185,84.990013 
	C35.208511,85.220612 35.431450,85.455940 35.847607,85.842216 
	C36.028149,86.005180 35.991974,86.007019 35.993370,85.988968 
	C36.207088,86.219254 36.431705,86.455925 36.849823,86.845535 
	C37.031029,87.010139 36.989925,87.007668 36.993469,86.987389 
	C37.380203,87.446693 37.510159,87.987183 37.238571,88.997093 
	C37.090099,89.405632 37.102982,89.711601 37.051491,89.855804 
	C33.638714,90.000000 30.277426,90.000000 26.156273,89.469147 
	C25.347050,88.066261 24.953077,87.380630 24.046467,86.633545 
	C23.702316,86.249825 23.579865,86.084923 23.313431,85.651909 
	C22.848297,84.676453 22.591572,83.936974 21.955845,83.084755 
	C21.661985,82.733818 21.542383,82.597733 21.054893,82.081741 
	C20.432142,81.472176 20.167692,81.254211 19.677845,80.915871 
	C19.327202,80.684914 19.190300,80.588570 18.873806,80.318817 
	C18.498388,79.881516 18.327452,79.602402 18.056866,79.103058 
	C17.932329,78.898064 17.665165,78.500595 17.520153,78.308372 
	C17.375143,78.116150 17.070341,77.736916 16.922302,77.540085 
	C16.774261,77.343254 16.535620,76.906601 16.469589,76.665054 
	C16.381817,76.084999 16.435720,75.759964 16.762043,75.281242 
	C17.715374,75.083145 18.483555,75.054291 19.620285,75.138611 
	C20.624407,75.364548 20.867102,76.804123 21.945314,75.518341 
	C23.524466,74.956520 25.007250,74.550720 26.649162,75.872726 
	C27.003036,75.993309 26.990847,75.993233 26.989565,75.986038 
	C27.191929,76.236649 27.419556,76.471184 27.851479,76.849014 
	C28.031799,77.015579 27.986458,77.014038 27.986372,76.991348 
	C28.202866,77.215446 28.429760,77.452339 28.848984,77.844963 
	C29.030998,78.010574 28.989964,78.008705 28.992710,77.988350 
	C29.381935,78.525253 29.731386,79.113548 30.598522,79.677765 
z"/>
<path fill="#000000" opacity="1.000000" stroke="none" 
	d="
M161.541931,1.000000 
	C161.040451,7.564265 158.020294,13.434391 155.796295,21.169645 
	C153.707291,13.666845 152.037048,7.668111 150.683411,1.334689 
	C154.361282,1.000000 157.722580,1.000000 161.541931,1.000000 
z"/>
<path fill="#000000" opacity="1.000000" stroke="none" 
	d="
M405.795624,87.562668 
	C406.531189,88.341362 407.040894,88.895462 407.275299,89.724777 
	C400.312347,90.000000 393.624725,90.000000 386.468536,90.000000 
	C385.867218,89.810890 385.734467,89.621773 385.670837,89.093216 
	C389.338226,85.637665 392.323944,81.976555 395.369202,77.906586 
	C396.092133,77.142601 396.681549,76.805054 397.721161,76.745972 
	C398.940247,77.601120 399.028778,78.749512 399.486389,80.076073 
	C399.947052,81.327293 400.386261,82.235329 401.291229,83.218376 
	C401.789642,83.728401 402.079651,84.016823 402.606873,84.508118 
	C403.771973,85.566559 404.890747,86.223816 405.795624,87.562668 
z"/>
<path fill="#A48035" opacity="1.000000" stroke="none" 
	d="
M69.734482,76.238693 
	C71.271873,79.194855 74.197487,80.998100 74.978012,84.455055 
	C75.374786,85.316757 75.466248,85.942703 75.833969,86.776978 
	C76.042290,87.009918 75.992142,87.003586 76.001846,86.980255 
	C76.511757,87.674225 76.709343,88.450317 76.234482,89.655746 
	C74.611107,90.000000 73.222221,90.000000 71.416664,90.000000 
	C70.565491,89.563240 70.131500,89.126137 70.000786,88.179054 
	C67.951195,84.263268 65.904922,80.655617 63.837593,76.697723 
	C65.625801,75.907181 67.440186,75.669029 69.734482,76.238693 
z"/>
<path fill="#000000" opacity="1.000000" stroke="none" 
	d="
M325.468536,90.000000 
	C324.823853,89.825630 324.647675,89.651253 324.668488,89.161545 
	C325.245789,88.641243 325.526337,88.340256 325.970306,87.761703 
	C327.102539,86.941978 328.188690,86.894997 329.451599,86.415894 
	C330.306335,86.053223 330.874115,85.808205 331.677094,85.341446 
	C333.335754,84.486938 333.892334,83.080536 334.929749,81.663918 
	C335.731964,80.797096 336.343933,80.193840 337.454376,79.771591 
	C338.398193,79.978027 338.790894,80.474014 339.307343,81.275055 
	C339.758270,82.073196 340.017670,82.623100 340.527893,83.370674 
	C341.090759,84.061264 341.479858,84.509109 342.146973,85.103165 
	C342.698792,85.537170 343.030334,85.766365 343.647400,86.126251 
	C344.683136,86.664009 345.442261,87.058243 346.262329,87.919624 
	C346.566895,88.631104 346.558472,89.065460 346.219208,89.749649 
	C339.312347,90.000000 332.624725,90.000000 325.468536,90.000000 
z"/>
<path fill="#C09028" opacity="1.000000" stroke="none" 
	d="
M378.657867,85.513031 
	C378.945618,84.725288 378.965729,84.220444 379.001862,83.337006 
	C379.492218,82.562622 379.502777,81.970352 379.821869,81.208145 
	C379.982819,80.975662 380.000061,81.002129 379.985107,80.996719 
	C380.634644,80.350861 380.837585,79.410469 381.678772,78.488647 
	C381.927307,78.041473 381.937073,77.835266 381.962158,77.319946 
	C382.691467,75.544983 384.038605,76.084557 385.543945,76.082886 
	C386.258789,76.389603 386.493805,76.699791 386.584442,77.417755 
	C386.448425,78.499069 386.147644,79.231186 385.850952,80.260803 
	C385.581512,81.058052 385.330933,81.554634 384.991089,82.304230 
	C384.820404,82.715454 384.754852,82.880630 384.617157,83.300888 
	C384.461395,84.102684 384.498047,84.645088 384.643585,85.481003 
	C384.721191,86.604935 384.571106,87.424400 384.570862,88.572037 
	C384.522858,89.102470 384.475708,89.311562 384.214294,89.760323 
	C382.285645,90.000000 380.571289,90.000000 378.428467,90.000000 
	C376.632446,88.459633 377.464691,87.123451 378.657867,85.513031 
z"/>
<path fill="#CC9723" opacity="1.000000" stroke="none" 
	d="
M245.243286,88.952423 
	C245.071136,89.402214 245.079132,89.706291 245.039566,89.853149 
	C244.555557,90.000000 244.111099,90.000000 243.333328,90.000000 
	C243.902420,88.639183 242.805038,88.357613 241.532242,87.902145 
	C238.894440,85.635834 239.893463,82.784660 239.633545,79.737076 
	C239.675629,78.081955 239.755630,76.884529 240.709076,75.472229 
	C242.062302,75.101189 243.131973,75.079369 244.602432,75.094353 
	C246.008728,79.561554 245.302612,84.044724 245.243286,88.952423 
z"/>
<path fill="#D49B1F" opacity="1.000000" stroke="none" 
	d="
M119.864746,80.787857 
	C121.526260,82.162903 121.772751,83.877045 122.492020,85.696655 
	C123.888939,86.806602 123.892349,87.969505 123.251602,89.614349 
	C122.250000,90.000000 121.500000,90.000000 120.375000,90.000000 
	C119.191864,85.798103 116.348412,82.508148 114.873512,78.592972 
	C114.224754,76.870811 112.723122,75.215759 116.481949,75.096191 
	C117.919739,75.630577 117.927383,76.844124 118.805115,77.807831 
	C119.022331,78.021553 119.000755,77.997406 118.992805,77.983299 
	C119.691620,78.702721 119.357407,79.698471 119.864746,80.787857 
z"/>
<path fill="#D09921" opacity="1.000000" stroke="none" 
	d="
M384.905243,80.843048 
	C385.129425,79.840599 385.217529,79.151817 385.460815,78.251259 
	C386.950958,78.203712 386.364655,77.057915 386.897400,76.344032 
	C388.159271,75.807983 389.435181,76.306427 390.589600,75.201324 
	C391.079834,75.279404 391.239929,75.418335 391.489014,75.859955 
	C391.566650,76.370193 391.555298,76.577759 391.450867,77.078796 
	C391.046844,78.091064 390.598175,78.761551 390.568298,79.876953 
	C390.521362,80.362900 390.488037,80.555664 390.340515,81.017624 
	C389.921936,81.772148 389.544495,82.208313 389.141235,82.962051 
	C388.932831,83.378860 388.850922,83.545792 388.645630,83.961151 
	C388.279633,84.706085 388.060760,85.212181 387.823730,86.012054 
	C387.506287,87.026245 386.939575,87.538704 386.240143,88.293976 
	C385.875824,88.731262 385.723297,88.981705 385.785400,89.616074 
	C386.000000,90.000000 385.500000,90.000000 385.250000,90.000000 
	C384.884125,89.874397 384.768219,89.748802 384.407227,89.548218 
	C382.696136,88.298698 383.629272,86.985855 383.974792,85.360359 
	C383.630157,84.620033 383.490173,84.156998 383.805420,83.313477 
	C384.026978,83.003754 383.998779,82.998215 384.006531,83.010269 
	C384.538544,82.510757 384.508484,81.774918 384.905243,80.843048 
z"/>
<path fill="#000000" opacity="1.000000" stroke="none" 
	d="
M69.632133,87.918365 
	C70.520988,88.397484 71.044510,88.924057 71.284012,89.725319 
	C67.969406,90.000000 64.938812,90.000000 61.454109,90.000000 
	C60.982044,89.388657 60.841885,88.750664 60.968342,88.170815 
	C61.400455,86.189507 59.830597,83.258438 61.983208,82.380127 
	C63.913971,81.592339 63.835335,85.075439 65.431328,85.930107 
	C66.707298,86.613403 67.988129,87.287598 69.632133,87.918365 
z"/>
<path fill="#000000" opacity="1.000000" stroke="none" 
	d="
M478.444153,90.000000 
	C477.972076,86.330444 482.719421,85.946510 482.901642,82.258354 
	C484.809204,84.552330 484.669312,87.464668 486.272949,89.678909 
	C483.629425,90.000000 481.258881,90.000000 478.444153,90.000000 
z"/>
<path fill="#000000" opacity="1.000000" stroke="none" 
	d="
M443.790131,88.462273 
	C446.621674,86.909195 448.922241,85.285919 450.504242,80.944214 
	C450.919556,84.720596 451.166443,86.965546 451.206665,89.605247 
	C448.958344,90.000000 446.916656,90.000000 444.437500,90.000000 
	C443.649963,89.650978 443.519348,89.228157 443.790131,88.462273 
z"/>
<path fill="#C49326" opacity="1.000000" stroke="none" 
	d="
M500.623260,86.004509 
	C500.375458,87.122986 499.744812,88.240471 499.057068,89.678978 
	C498.555542,90.000000 498.111115,90.000000 497.333313,90.000000 
	C496.820801,87.646736 497.565277,86.042435 500.623260,86.004509 
z"/>
<path fill="#70634C" opacity="1.000000" stroke="none" 
	d="
M378.580750,85.227821 
	C378.851776,86.616974 377.630707,87.828232 378.149170,89.664261 
	C377.555542,90.000000 377.111115,90.000000 376.333313,90.000000 
	C375.730469,87.933220 376.537231,86.370499 378.580750,85.227821 
z"/>
<path fill="#5D5955" opacity="1.000000" stroke="none" 
	d="
M346.333313,90.000000 
	C346.027069,89.581917 346.054138,89.163841 346.024200,88.418480 
	C344.864655,86.256783 345.653015,84.974319 347.600647,83.935898 
	C348.103058,85.694603 348.192566,87.427139 348.141022,89.579834 
	C347.555542,90.000000 347.111115,90.000000 346.333313,90.000000 
z"/>
<path fill="#B88C2C" opacity="1.000000" stroke="none" 
	d="
M207.333328,90.000000 
	C207.001816,88.761040 206.360977,86.899071 207.899597,86.634575 
	C209.500702,86.359352 208.870239,88.277008 209.084549,89.628799 
	C208.555557,90.000000 208.111099,90.000000 207.333328,90.000000 
z"/>
<path fill="#6B614E" opacity="1.000000" stroke="none" 
	d="
M123.333328,90.000000 
	C122.924042,88.923874 122.848083,87.847748 122.733749,86.353645 
	C124.659126,86.224579 124.619774,88.119171 125.211472,89.669197 
	C124.555557,90.000000 124.111107,90.000000 123.333328,90.000000 
z"/>
<path fill="#5D5955" opacity="1.000000" stroke="none" 
	d="
M97.932434,86.372871 
	C99.628830,86.500763 99.872803,88.081558 100.240356,89.698181 
	C99.555557,90.000000 99.111107,90.000000 98.333336,90.000000 
	C97.966064,88.929771 97.932129,87.859535 97.932434,86.372871 
z"/>
<path fill="#5B5855" opacity="1.000000" stroke="none" 
	d="
M128.333328,90.000000 
	C127.948441,89.005798 127.896889,88.011604 127.790543,86.627670 
	C127.750893,86.012207 127.766045,85.786469 128.119003,85.593201 
	C129.143829,86.897202 129.830841,88.168739 130.258926,89.720139 
	C129.555557,90.000000 129.111099,90.000000 128.333328,90.000000 
z"/>
<path fill="#C59326" opacity="1.000000" stroke="none" 
	d="
M493.577606,86.994736 
	C493.960175,87.686920 494.002655,88.458733 494.022552,89.615280 
	C493.555542,90.000000 493.111115,90.000000 492.333313,90.000000 
	C491.891632,88.804459 491.775818,87.605782 493.577606,86.994736 
z"/>
<path fill="#6B614E" opacity="1.000000" stroke="none" 
	d="
M443.984741,87.847595 
	C443.897797,88.598969 443.792267,89.015434 443.843384,89.715950 
	C443.555542,90.000000 443.111115,90.000000 442.333313,90.000000 
	C441.747742,89.834946 441.495483,89.669891 441.261169,89.053040 
	C441.440247,88.544716 441.601440,88.488197 441.936127,88.243210 
	C442.438019,87.375870 442.766357,86.697006 443.295715,85.799728 
	C443.727722,85.554169 443.958740,85.527008 444.207764,85.848282 
	C444.139252,86.635361 444.052673,87.074020 443.984741,87.847595 
z"/>
<path fill="#B0872F" opacity="1.000000" stroke="none" 
	d="
M431.375000,90.000000 
	C430.681702,88.828926 431.396118,88.325111 432.650208,87.841782 
	C433.317657,88.271034 433.655090,88.815254 433.996277,89.679741 
	C433.250000,90.000000 432.500000,90.000000 431.375000,90.000000 
z"/>
<path fill="#B0872F" opacity="1.000000" stroke="none" 
	d="
M436.375000,90.000000 
	C435.826447,88.217514 436.587860,87.842117 438.325806,88.803513 
	C438.756805,89.110062 438.965729,89.215225 439.087311,89.660202 
	C438.250000,90.000000 437.500000,90.000000 436.375000,90.000000 
z"/>
<path fill="#4F505B" opacity="1.000000" stroke="none" 
	d="
M76.333328,90.000000 
	C76.010139,89.243347 76.020279,88.486702 76.020981,87.343491 
	C77.542435,87.075096 77.812576,88.471619 78.258484,89.713913 
	C77.555557,90.000000 77.111107,90.000000 76.333328,90.000000 
z"/>
<path fill="#000000" opacity="1.000000" stroke="none" 
	d="
M320.714355,87.851288 
	C321.130524,88.513130 321.348602,88.984230 321.283325,89.727661 
	C321.000000,90.000000 320.500000,90.000000 320.250000,90.000000 
	C319.442322,89.661720 319.377533,89.250969 319.973358,88.408035 
	C320.257568,87.920326 320.386932,87.790428 320.714355,87.851288 
z"/>
<path fill="#C99524" opacity="1.000000" stroke="none" 
	d="
M24.250000,90.000000 
	C24.249249,89.918877 24.498497,89.837746 24.873875,89.878311 
	C25.000000,90.000000 24.500000,90.000000 24.250000,90.000000 
z"/>
<path fill="#5D5955" opacity="1.000000" stroke="none" 
	d="
M25.250000,90.000000 
	C24.822281,89.868614 24.644562,89.737221 24.589314,89.297752 
	C24.913231,88.898735 25.114674,88.807785 25.619837,88.849747 
	C26.077221,89.141632 26.230885,89.300598 26.192276,89.729782 
	C26.000000,90.000000 25.500000,90.000000 25.250000,90.000000 
z"/>
<path fill="#C99524" opacity="1.000000" stroke="none" 
	d="
M384.131256,89.607910 
	C384.445160,89.278732 384.681854,89.324532 384.936096,89.805313 
	C385.000000,90.000000 384.500000,90.000000 384.250000,90.000000 
	C384.000000,90.000000 384.100403,89.742577 384.131256,89.607910 
z"/>
<path fill="#6B614E" opacity="1.000000" stroke="none" 
	d="
M439.250000,90.000000 
	C438.851959,89.867180 438.703888,89.734352 438.551880,89.303207 
	C439.036041,89.083626 439.524231,89.162369 440.006195,89.620552 
	C440.000000,90.000000 439.500000,90.000000 439.250000,90.000000 
z"/>
<path fill="#D09921" opacity="1.000000" stroke="none" 
	d="
M348.001892,83.977539 
	C346.723450,84.746513 346.469604,86.122574 346.008057,87.747284 
	C345.051117,88.028854 344.145325,87.943390 343.330383,86.835907 
	C342.730499,86.500351 342.535583,86.261909 342.239990,85.890831 
	C341.372650,85.444817 340.740448,85.021980 339.994324,84.321320 
	C339.476807,82.969940 340.107086,81.955933 340.141479,80.593536 
	C340.420013,79.683601 340.657013,79.096420 340.923035,78.187088 
	C341.064392,77.681480 341.123230,77.479607 341.275940,76.976730 
	C341.629608,75.870163 341.829071,75.051270 341.965820,73.883690 
	C342.123840,73.129562 342.296204,72.726173 342.777283,72.130539 
	C345.960541,72.908852 348.504669,74.901428 351.859497,75.571060 
	C351.857788,76.179085 351.679138,76.465309 351.281494,76.884171 
	C350.516205,77.364510 350.130554,77.825439 350.021027,78.797699 
	C350.014740,79.109940 350.003296,79.530067 349.997192,79.740128 
	C349.604797,80.428513 349.329895,80.972084 349.042206,81.826859 
	C348.994446,82.315239 348.973572,82.500694 348.914337,82.963440 
	C348.710541,83.354950 348.545135,83.469177 348.175232,83.804962 
	C347.970764,84.026512 347.990234,83.993019 348.001892,83.977539 
z"/>
<path fill="#C99524" opacity="1.000000" stroke="none" 
	d="
M386.297852,88.291153 
	C386.279510,87.823929 386.530701,87.167038 386.889771,86.258774 
	C387.464783,85.592705 387.503876,84.996803 387.826752,84.214844 
	C387.996277,83.980431 388.003448,84.002876 387.991638,84.002747 
	C388.630951,83.332878 388.847382,82.386589 389.689667,81.437233 
	C389.938080,81.018997 389.949493,80.851234 389.976807,80.431755 
	C389.974396,79.241508 390.238800,78.367966 390.808502,77.240295 
	C391.012238,76.962807 391.013580,77.008667 390.992371,77.017410 
	C391.435120,76.590378 391.516144,76.009804 391.744629,75.178207 
	C392.941071,73.687363 394.386688,73.202049 396.203613,72.795486 
	C396.795410,72.919853 397.048218,73.024605 397.482086,73.498291 
	C398.089813,75.416855 397.007568,76.424988 396.063263,77.886414 
	C393.243988,81.985184 391.848145,86.852562 386.297852,88.291153 
z"/>
<path fill="#D19921" opacity="1.000000" stroke="none" 
	d="
M25.943756,88.967957 
	C25.721109,88.960190 25.518663,88.937698 25.014002,88.952438 
	C24.711788,88.989677 24.685637,88.970978 24.712729,88.970642 
	C18.759567,87.064445 15.881408,81.668396 12.079441,77.413956 
	C9.297752,74.301201 12.809437,75.330963 14.482264,75.097015 
	C15.541135,75.529099 16.049652,76.104912 16.810030,76.821304 
	C17.008598,77.026657 17.010967,76.989471 16.992443,76.987480 
	C17.204489,77.218956 17.436119,77.451363 17.844841,77.854675 
	C18.020870,78.026649 18.019148,77.984917 17.999052,77.979218 
	C18.410067,78.418587 18.467676,79.018692 18.822781,79.800308 
	C19.003702,80.030212 19.007120,79.992943 18.988474,79.994553 
	C19.412397,80.439278 20.013437,80.508072 20.810112,80.851601 
	C21.047228,81.028343 21.017977,80.981087 20.993660,80.967636 
	C21.386681,81.428848 21.519011,82.084244 22.196095,82.763855 
	C22.789629,83.517006 23.112570,84.075966 23.765591,84.792953 
	C24.006834,85.221489 24.024820,85.415443 24.079689,85.899254 
	C25.071722,86.683151 25.915190,87.286812 26.138638,88.666862 
	C26.013916,88.957169 25.963953,88.953247 25.943756,88.967957 
z"/>
<path fill="#C79325" opacity="1.000000" stroke="none" 
	d="
M406.019775,87.431580 
	C404.669098,87.189255 403.112213,86.960945 402.069641,85.330551 
	C402.060303,81.978134 404.396240,79.725723 404.906250,76.487762 
	C405.070801,75.954735 405.150665,75.746223 405.405029,75.252121 
	C406.059601,74.471313 406.648682,74.193977 407.654907,74.085678 
	C409.413361,73.494804 410.118347,75.041634 411.661926,75.247116 
	C411.185669,77.077484 410.341370,78.864746 409.221161,80.833435 
	C408.390015,81.515533 407.629547,81.803131 407.161652,82.800377 
	C406.992371,83.030617 406.985321,82.989914 407.005463,82.985336 
	C406.587830,83.396210 406.488495,83.954247 406.198364,84.725471 
	C406.015991,85.653168 406.017029,86.364532 406.019775,87.431580 
z"/>
<path fill="#D09921" opacity="1.000000" stroke="none" 
	d="
M330.391998,86.738159 
	C329.398254,88.507133 328.010803,87.842873 326.489624,87.982162 
	C325.948212,87.811424 325.778351,87.659813 325.816528,87.237358 
	C326.024567,86.966515 326.012421,87.009247 325.997070,87.025322 
	C326.865051,86.099770 326.389130,84.929420 326.522400,83.524986 
	C326.557770,82.967133 326.587738,82.744972 326.812500,82.248749 
	C327.007355,81.974686 327.008514,82.009850 326.994385,82.020325 
	C327.933289,81.009987 327.301971,79.702637 327.813263,78.264725 
	C328.019379,77.964790 328.012177,78.005920 327.998016,78.021255 
	C328.715881,77.345314 328.433502,76.401184 328.858521,75.365311 
	C330.023376,74.418098 330.963013,73.765221 332.580505,73.975540 
	C333.989105,73.584496 334.286774,74.289963 334.501740,75.473969 
	C332.325958,79.069016 332.958191,83.295357 330.391998,86.738159 
z"/>
<path fill="#A88233" opacity="1.000000" stroke="none" 
	d="
M397.254639,74.354080 
	C396.984650,73.893898 396.909729,73.673134 396.688721,73.133736 
	C396.542633,72.815094 396.616547,72.790169 396.652283,72.805786 
	C397.387115,72.705826 397.487061,72.139374 397.794403,71.373863 
	C399.860352,70.324791 401.392212,65.464081 403.937927,70.932571 
	C404.990204,75.465576 402.073944,77.963615 399.389343,80.850891 
	C398.659058,79.881088 398.277527,78.786697 397.797424,77.349945 
	C397.204559,76.245316 397.595673,75.391708 397.254639,74.354080 
z"/>
<path fill="#CD9722" opacity="1.000000" stroke="none" 
	d="
M333.713501,76.374588 
	C333.801056,75.478165 333.624023,74.894951 333.187683,74.137360 
	C334.712830,72.984856 335.798584,70.763893 338.613220,70.936035 
	C339.735168,72.115585 339.188110,73.327423 338.870728,74.902481 
	C338.283630,77.476891 336.753876,79.275421 335.952759,81.653900 
	C334.573639,83.141251 335.445435,85.762100 332.432892,86.000046 
	C330.584717,82.610481 332.529022,79.724274 333.713501,76.374588 
z"/>
<path fill="#C59326" opacity="1.000000" stroke="none" 
	d="
M337.800446,75.235809 
	C338.265350,73.744148 338.500854,72.644615 338.856567,71.222870 
	C338.959717,69.728584 339.401062,69.011391 340.708832,69.082428 
	C342.067596,69.156235 342.764435,69.921028 343.022156,71.553505 
	C343.027161,72.376701 343.022949,72.837875 343.014038,73.644958 
	C342.247253,74.617996 342.007843,75.457443 342.041412,76.741547 
	C342.053253,77.080139 342.028442,77.528793 342.018494,77.753242 
	C341.745483,78.268387 341.541992,78.596794 341.201965,79.182602 
	C340.289978,80.094559 340.412445,81.302040 339.211487,81.947334 
	C338.185181,81.863144 337.998169,81.314171 337.907349,80.354073 
	C336.870300,78.631836 337.684448,77.100052 337.800446,75.235809 
z"/>
<path fill="#B58A2D" opacity="1.000000" stroke="none" 
	d="
M236.114929,84.628510 
	C231.127899,82.454575 232.117538,77.906921 232.428970,74.164803 
	C232.653641,71.465286 234.903824,73.932167 236.634583,74.078384 
	C237.490173,74.776360 237.759995,75.454613 237.639023,76.596550 
	C235.445908,79.174065 237.831802,82.091812 236.114929,84.628510 
z"/>
<path fill="#C79325" opacity="1.000000" stroke="none" 
	d="
M399.017456,81.307388 
	C400.683502,77.952827 402.326447,74.930168 404.021332,71.563538 
	C404.992401,71.614487 405.911499,72.009407 406.856384,72.718567 
	C406.923065,73.608284 406.777008,74.127815 406.221436,74.779373 
	C406.024811,74.975121 406.000153,75.004578 405.989258,75.020386 
	C405.257660,78.235840 403.348663,80.820320 401.300842,83.665428 
	C399.716278,83.667030 399.105865,82.880234 399.017456,81.307388 
z"/>
<path fill="#D19921" opacity="1.000000" stroke="none" 
	d="
M236.564331,77.650894 
	C236.865494,76.490334 236.932053,75.716209 237.010574,74.553268 
	C237.496796,74.414787 237.971069,74.665138 238.708054,75.029144 
	C240.114777,76.144051 239.882721,77.633408 240.384155,79.293976 
	C240.473969,82.179291 240.539734,84.663139 240.220764,87.507126 
	C239.065125,87.454811 238.114532,87.041351 237.020905,86.340469 
	C236.435944,83.398872 236.114151,80.736481 236.564331,77.650894 
z"/>
<path fill="#D39B1F" opacity="1.000000" stroke="none" 
	d="
M221.546295,75.096069 
	C219.237640,78.895714 215.293716,76.179771 211.550797,77.001511 
	C210.746155,76.668846 210.591995,76.254639 210.835632,75.503189 
	C214.404251,75.165573 217.748932,75.095840 221.546295,75.096069 
z"/>
<path fill="#404862" opacity="1.000000" stroke="none" 
	d="
M245.506058,89.215408 
	C245.027390,84.949707 244.983627,80.497208 244.971558,75.587929 
	C245.003220,75.131157 245.436035,75.027992 245.653336,75.067398 
	C245.894089,79.747406 245.917526,84.388000 245.506058,89.215408 
z"/>
<path fill="#C49326" opacity="1.000000" stroke="none" 
	d="
M509.658569,75.283005 
	C510.266754,78.261414 507.603546,78.509438 505.818420,80.312622 
	C504.886780,77.701500 506.817200,77.056992 507.705139,75.621918 
	C508.345520,75.347870 508.819763,75.328148 509.658569,75.283005 
z"/>
<path fill="#605A53" opacity="1.000000" stroke="none" 
	d="
M236.449860,77.254303 
	C236.866592,79.898262 236.934280,82.532074 236.939911,85.609467 
	C236.604950,85.816689 236.332016,85.580338 235.943909,85.092224 
	C236.891617,82.343185 233.551682,79.688210 236.449860,77.254303 
z"/>
<path fill="#C09028" opacity="1.000000" stroke="none" 
	d="
M449.759552,76.628738 
	C449.943512,78.995476 448.581085,80.437767 446.378143,82.167931 
	C446.243195,79.545990 447.373779,78.203659 448.680237,76.600784 
	C449.048645,76.415359 449.247070,76.492798 449.759552,76.628738 
z"/>
<path fill="#C39227" opacity="1.000000" stroke="none" 
	d="
M21.712093,75.217667 
	C22.396385,76.350365 24.171375,76.855339 23.388405,78.543579 
	C21.415516,78.739876 20.766975,77.290710 20.035618,75.570206 
	C20.448391,75.233444 20.907949,75.215111 21.712093,75.217667 
z"/>
<path fill="#364366" opacity="1.000000" stroke="none" 
	d="
M240.303009,87.899719 
	C239.983917,85.207062 239.952103,82.545853 239.917969,79.437279 
	C240.084106,78.882484 240.252563,78.775063 240.628540,78.883835 
	C240.926239,81.722382 241.016403,84.344742 241.133331,87.400764 
	C240.970169,87.866676 240.780228,87.898918 240.303009,87.899719 
z"/>
<path fill="#766749" opacity="1.000000" stroke="none" 
	d="
M240.907166,78.706497 
	C240.836090,79.100021 240.376511,79.041779 240.146088,79.015839 
	C238.823685,78.165756 239.133316,76.938858 238.990143,75.489655 
	C239.421341,75.099197 239.871902,75.055595 240.657547,75.067505 
	C240.987823,76.186333 240.983032,77.249657 240.907166,78.706497 
z"/>
<path fill="#D39B1F" opacity="1.000000" stroke="none" 
	d="
M209.122040,76.735138 
	C208.453339,77.261673 208.009521,77.521118 207.283127,77.835220 
	C206.447556,77.461014 205.894547,77.032135 205.169464,76.398758 
	C205.095169,75.957802 205.192947,75.721336 205.655731,75.366074 
	C206.754623,75.177803 207.488525,75.108322 208.581268,75.137039 
	C209.306061,75.570145 209.431030,75.984596 209.122040,76.735138 
z"/>
<path fill="#BF8F29" opacity="1.000000" stroke="none" 
	d="
M75.703835,76.227310 
	C75.816452,77.370369 77.615326,78.828781 76.336655,79.355057 
	C74.649300,80.049538 74.646790,77.917572 73.996750,76.569595 
	C74.423058,76.228683 74.888992,76.213135 75.703835,76.227310 
z"/>
<path fill="#C49326" opacity="1.000000" stroke="none" 
	d="
M514.671936,75.230148 
	C514.837585,76.438545 514.504028,77.728264 513.080200,77.608231 
	C511.884735,77.507446 512.325928,76.499283 512.804443,75.502258 
	C513.393188,75.229492 513.858459,75.215988 514.671936,75.230148 
z"/>
<path fill="#B88C2C" opacity="1.000000" stroke="none" 
	d="
M209.069809,77.228027 
	C208.911011,76.609726 208.924866,76.217209 208.939392,75.529968 
	C209.411316,75.212563 209.882553,75.189888 210.706665,75.201263 
	C211.062378,75.628151 211.065201,76.020996 211.085449,76.708038 
	C210.613480,77.691437 210.044647,78.053322 209.069809,77.228027 
z"/>
<path fill="#53545A" opacity="1.000000" stroke="none" 
	d="
M119.071968,77.659088 
	C117.252686,78.328308 117.297569,76.915588 116.915840,75.509338 
	C117.324814,75.118126 117.787987,75.073372 118.595383,75.071671 
	C119.000282,75.842026 119.060944,76.569328 119.071968,77.659088 
z"/>
<path fill="#5D5955" opacity="1.000000" stroke="none" 
	d="
M93.632812,76.070084 
	C94.019501,76.847458 94.065681,77.574936 94.063400,78.664551 
	C92.693428,78.864647 92.435379,77.758926 91.974533,76.470078 
	C92.378754,76.109161 92.835526,76.064674 93.632812,76.070084 
z"/>
<path fill="#C29127" opacity="1.000000" stroke="none" 
	d="
M406.312256,74.967934 
	C406.160004,74.440346 406.295197,73.905563 406.656250,73.201797 
	C407.144318,73.247902 407.406494,73.462997 407.826355,73.878510 
	C407.522583,74.372871 407.061157,74.666809 406.312256,74.967934 
z"/>
<path fill="#5D5955" opacity="1.000000" stroke="none" 
	d="
M17.020519,76.706909 
	C15.904910,77.343155 15.407369,76.651871 14.925343,75.493317 
	C15.320374,75.126099 15.786573,75.082016 16.599983,75.074966 
	C16.975607,75.537048 17.004023,75.962112 17.020519,76.706909 
z"/>
<path fill="#6A604F" opacity="1.000000" stroke="none" 
	d="
M386.827942,76.164627 
	C386.812469,76.981361 387.835114,78.426018 385.819153,78.282005 
	C385.711273,77.628586 385.806549,77.217697 385.900970,76.487671 
	C386.106293,76.163330 386.312500,76.158127 386.827942,76.164627 
z"/>
<path fill="#575557" opacity="1.000000" stroke="none" 
	d="
M328.769501,75.147400 
	C328.913513,75.991417 328.708984,76.820908 328.244171,77.843506 
	C327.905731,77.329941 327.827606,76.623291 327.738007,75.558487 
	C327.958038,75.177849 328.189514,75.155357 328.769501,75.147400 
z"/>
<path fill="#4F505B" opacity="1.000000" stroke="none" 
	d="
M391.661865,74.978119 
	C391.823853,75.589684 391.736267,76.244858 391.309906,76.963089 
	C390.963715,76.606613 390.956299,76.187073 390.934326,75.454010 
	C391.083954,75.100883 391.248138,75.061302 391.661865,74.978119 
z"/>
<path fill="#C39227" opacity="1.000000" stroke="none" 
	d="
M98.698883,76.249817 
	C99.032524,76.264603 99.039650,76.625015 99.039444,76.805260 
	C98.873802,77.128647 98.708382,77.271790 98.231155,77.312675 
	C97.652306,77.102745 97.426590,76.938324 97.138565,76.533722 
	C97.478355,76.311874 97.921799,76.273453 98.698883,76.249817 
z"/>
<path fill="#B0872F" opacity="1.000000" stroke="none" 
	d="
M439.282410,77.897865 
	C438.964294,77.596764 438.899628,77.241653 438.852051,76.613007 
	C439.076508,76.401474 439.283875,76.463486 439.815552,76.500641 
	C439.938538,76.931808 439.737213,77.387825 439.282410,77.897865 
z"/>
<path fill="#B0872F" opacity="1.000000" stroke="none" 
	d="
M444.812134,76.503273 
	C444.966766,76.834175 444.798981,77.188805 444.631195,77.543442 
	C444.378967,77.313576 444.126740,77.083717 443.872437,76.597443 
	C444.076843,76.403023 444.283264,76.465019 444.812134,76.503273 
z"/>
<path fill="#C99524" opacity="1.000000" stroke="none" 
	d="
M397.644348,71.186783 
	C397.748413,71.679398 397.520874,72.203461 396.990692,72.774460 
	C396.198212,72.014977 396.975677,71.702408 397.644348,71.186783 
z"/>
<path fill="#B88C2C" opacity="1.000000" stroke="none" 
	d="
M205.681580,75.207825 
	C205.897018,75.551865 205.694229,75.788757 205.204865,76.076111 
	C204.699326,76.071777 204.440079,75.892990 204.100433,75.453033 
	C204.434937,75.221565 204.888687,75.194962 205.681580,75.207825 
z"/>
<path fill="#000000" opacity="1.000000" stroke="none" 
	d="
M365.000000,36.811378 
	C365.000061,31.172861 365.002380,26.015574 364.998810,20.858292 
	C364.997772,19.372295 364.722412,17.465681 367.107361,18.067720 
	C368.796112,18.494007 371.691498,16.187067 372.065002,20.062580 
	C372.154755,20.993591 372.938568,21.878508 372.954773,22.792578 
	C373.109924,31.535746 372.556366,40.307003 374.010529,48.994682 
	C374.625214,52.667198 372.075317,52.010178 370.017334,51.988029 
	C368.001007,51.966328 365.436890,52.759197 365.968933,49.022560 
	C366.532227,45.066368 365.511871,41.188866 365.000000,36.811378 
z"/>
<path fill="#000000" opacity="1.000000" stroke="none" 
	d="
M83.052246,18.000183 
	C87.253204,17.264589 88.410973,18.756357 88.060822,22.488430 
	C87.206963,31.589182 86.611603,40.715763 86.022957,49.839100 
	C85.764412,53.846401 82.847900,51.489845 81.186081,51.930923 
	C79.206238,52.456402 77.366470,51.949753 78.030060,49.252678 
	C79.263634,44.238956 78.365334,39.059074 79.176064,34.110397 
	C79.903053,29.672886 79.950737,25.307985 79.960106,20.898399 
	C79.964218,18.960987 80.173721,17.593403 83.052246,18.000183 
z"/>
<path fill="#000000" opacity="1.000000" stroke="none" 
	d="
M425.764526,24.464706 
	C424.364380,17.650682 424.634521,17.408104 430.729523,17.947170 
	C432.371368,18.092382 433.105530,18.411211 433.035065,20.202196 
	C432.939270,22.638603 433.799530,25.157631 433.775604,27.411474 
	C433.698517,34.676220 434.856812,41.827187 435.094238,49.049351 
	C435.216797,52.777294 432.980011,51.967667 430.979401,51.986027 
	C428.938141,52.004753 426.676178,52.702976 426.927002,49.005409 
	C427.473236,40.951561 425.302399,32.969505 425.764526,24.464706 
z"/>
<path fill="#000000" opacity="1.000000" stroke="none" 
	d="
M313.712952,51.978745 
	C308.244171,51.987976 306.472443,49.282051 307.971954,44.280018 
	C308.393890,42.872486 309.240021,42.939610 310.184174,43.026569 
	C311.441925,43.142399 313.906250,42.644901 313.733154,43.620819 
	C313.219055,46.519756 316.574066,49.120678 313.712952,51.978745 
z"/>
<path fill="#000000" opacity="1.000000" stroke="none" 
	d="
M307.024841,25.735619 
	C307.003113,23.466745 307.055664,21.659283 306.990265,19.856096 
	C306.897156,17.288078 309.303375,17.532726 309.955231,18.156595 
	C312.198700,20.303822 311.100220,23.379997 310.779022,25.889387 
	C310.536102,27.787098 308.450378,27.442827 307.024841,25.735619 
z"/>
<path fill="#C69325" opacity="1.000000" stroke="none" 
	d="
M123.221649,76.362686 
	C123.982323,77.000923 124.554749,77.591080 124.165398,78.456398 
	C124.129089,78.537086 123.493065,78.517632 123.398308,78.372765 
	C123.000778,77.765060 122.198677,77.192757 123.221649,76.362686 
z"/>
<path fill="#53545A" opacity="1.000000" stroke="none" 
	d="
M120.149475,80.675613 
	C118.765099,80.751343 118.956444,79.625656 118.893082,78.330353 
	C120.140114,78.362823 120.169823,79.340187 120.149475,80.675613 
z"/>
<path fill="#5B5855" opacity="1.000000" stroke="none" 
	d="
M127.914528,86.083130 
	C127.434746,85.763283 127.133743,85.288620 126.786560,84.529678 
	C126.785225,84.083046 126.830070,83.920708 127.118141,83.690048 
	C127.660286,84.108559 127.959213,84.595375 128.357483,85.353928 
	C128.456818,85.625664 128.093307,85.928307 127.914528,86.083130 
z"/>
<path fill="#C69325" opacity="1.000000" stroke="none" 
	d="
M124.707825,80.607605 
	C124.841011,80.437935 125.073036,80.412331 125.305054,80.386726 
	C125.138924,80.508377 124.972786,80.630028 124.707825,80.607605 
z"/>
<path fill="#5B5855" opacity="1.000000" stroke="none" 
	d="
M126.897247,84.091095 
	C126.293907,83.768272 125.702103,83.248055 127.191826,83.458313 
	C127.361366,83.621735 127.054115,83.936790 126.897247,84.091095 
z"/>
<path fill="#C59326" opacity="1.000000" stroke="none" 
	d="
M502.610718,76.979355 
	C503.362122,79.465813 501.782196,80.391068 499.359192,80.960602 
	C499.150665,78.897392 500.364227,77.676292 502.610718,76.979355 
z"/>
<path fill="#B0872F" opacity="1.000000" stroke="none" 
	d="
M435.386963,83.206131 
	C435.774658,81.349709 436.232178,79.212616 438.619385,78.041405 
	C438.881622,80.365341 437.355743,81.760963 435.386963,83.206131 
z"/>
<path fill="#6B614E" opacity="1.000000" stroke="none" 
	d="
M443.678680,85.735527 
	C443.897614,84.800491 443.884827,83.170494 444.968567,83.572510 
	C446.293152,84.063896 445.084900,85.074677 444.453949,86.008636 
	C444.225800,86.196701 443.860657,85.889732 443.678680,85.735527 
z"/>
<path fill="#655D51" opacity="1.000000" stroke="none" 
	d="
M495.726257,84.078552 
	C496.280334,85.115906 495.874664,85.842461 494.332733,86.084213 
	C494.459869,85.446411 494.951721,84.816391 495.726257,84.078552 
z"/>
<path fill="#655D51" opacity="1.000000" stroke="none" 
	d="
M496.736938,82.908417 
	C497.711243,83.601410 497.282654,83.997948 496.217529,84.128471 
	C496.140808,83.679024 496.309753,83.353523 496.736938,82.908417 
z"/>
<path fill="#5B5855" opacity="1.000000" stroke="none" 
	d="
M433.282837,87.304802 
	C433.104492,86.804024 433.238220,86.082779 433.692810,85.165405 
	C434.324554,85.763481 434.081390,86.447990 433.282837,87.304802 
z"/>
<path fill="#C59326" opacity="1.000000" stroke="none" 
	d="
M498.695435,81.014832 
	C498.527435,81.318871 498.060455,81.640839 497.294922,81.984474 
	C497.463043,81.681679 497.929749,81.357224 498.695435,81.014832 
z"/>
<path fill="#B0872F" opacity="1.000000" stroke="none" 
	d="
M442.119598,80.037109 
	C442.368225,79.376785 442.640045,79.359833 442.875305,79.777916 
	C442.943909,79.899841 442.929749,80.123680 442.863678,80.255875 
	C442.648193,80.686958 442.379120,80.686150 442.119598,80.037109 
z"/>
<path fill="#C09028" opacity="1.000000" stroke="none" 
	d="
M441.962097,88.056168 
	C442.003754,88.195160 441.897858,88.335587 441.535522,88.538620 
	C441.310028,88.284592 441.488525,88.103378 441.962097,88.056168 
z"/>
<path fill="#5B5855" opacity="1.000000" stroke="none" 
	d="
M438.632874,86.654633 
	C438.360992,86.697548 438.150024,86.519371 438.181641,86.446465 
	C438.393677,85.957893 438.624573,85.979706 438.632874,86.654633 
z"/>
<path fill="#5B5855" opacity="1.000000" stroke="none" 
	d="
M434.346680,84.957413 
	C434.138916,84.623650 434.301758,84.222481 434.746155,83.640472 
	C434.924225,83.936424 434.820740,84.413208 434.346680,84.957413 
z"/>
<path fill="#5B5855" opacity="1.000000" stroke="none" 
	d="
M439.673950,84.723351 
	C439.403381,84.776276 439.185730,84.605713 439.214722,84.531525 
	C439.408936,84.034584 439.640869,84.047951 439.673950,84.723351 
z"/>
<path fill="#575557" opacity="1.000000" stroke="none" 
	d="
M321.355408,83.283463 
	C321.884552,80.802826 321.433228,78.195534 323.761719,76.407555 
	C323.377563,78.433434 322.993378,80.459312 322.368835,82.763992 
	C321.952606,83.214851 321.776764,83.386909 321.355408,83.283463 
z"/>
<path fill="#51525A" opacity="1.000000" stroke="none" 
	d="
M320.917694,83.336960 
	C321.279633,83.010986 321.449371,83.014038 321.873779,83.029938 
	C321.878357,84.514992 321.628296,85.987206 321.145325,87.750732 
	C320.912415,88.042046 320.519928,88.021080 320.324036,88.035645 
	C320.204071,86.572021 319.594604,85.000443 320.917694,83.336960 
z"/>
<path fill="#4B505D" opacity="1.000000" stroke="none" 
	d="
M326.838501,82.811630 
	C326.910339,84.175209 326.729614,85.376762 326.265320,86.809860 
	C325.978210,85.967720 325.974701,84.894051 326.044495,83.422791 
	C326.273804,82.900002 326.429840,82.774803 326.838501,82.811630 
z"/>
<path fill="#575557" opacity="1.000000" stroke="none" 
	d="
M327.673096,78.121475 
	C327.891510,79.200188 327.763641,80.435577 327.308014,81.850883 
	C327.095795,80.779915 327.211334,79.529030 327.673096,78.121475 
z"/>
<path fill="#4B505D" opacity="1.000000" stroke="none" 
	d="
M325.720276,87.030670 
	C326.023346,87.134033 326.022156,87.301544 326.069519,87.716049 
	C325.882751,88.237404 325.647461,88.511772 325.138794,88.816177 
	C325.048981,88.262421 325.232483,87.678619 325.720276,87.030670 
z"/>
<path fill="#615B53" opacity="1.000000" stroke="none" 
	d="
M327.130798,82.718842 
	C327.091064,82.973663 326.604004,82.997963 326.360901,83.011581 
	C326.233795,82.694893 326.349823,82.364586 326.736572,82.004486 
	C327.061737,82.137787 327.116119,82.300896 327.130798,82.718842 
z"/>
<path fill="#615B53" opacity="1.000000" stroke="none" 
	d="
M30.782072,79.587326 
	C29.893843,80.000366 29.072607,79.849602 28.931591,78.306717 
	C29.551607,78.425323 30.107761,78.882645 30.782072,79.587326 
z"/>
<path fill="#605A53" opacity="1.000000" stroke="none" 
	d="
M37.476131,89.402596 
	C37.002502,88.862305 36.914906,88.318970 36.912163,87.371376 
	C38.075047,87.497070 38.373917,88.304161 37.476131,89.402596 
z"/>
<path fill="#615B53" opacity="1.000000" stroke="none" 
	d="
M27.934435,76.776367 
	C27.751274,76.836975 27.470747,76.658371 27.089252,76.229301 
	C27.271212,76.164940 27.554140,76.351044 27.934435,76.776367 
z"/>
<path fill="#605A53" opacity="1.000000" stroke="none" 
	d="
M34.975159,84.695435 
	C34.674690,84.771759 34.321571,84.538521 33.963528,83.954376 
	C34.279903,83.864273 34.601208,84.125069 34.975159,84.695435 
z"/>
<path fill="#605A53" opacity="1.000000" stroke="none" 
	d="
M35.992584,85.725037 
	C35.688370,85.860367 35.348591,85.715553 35.003532,85.272011 
	C35.317844,85.130486 35.637432,85.287689 35.992584,85.725037 
z"/>
<path fill="#615B53" opacity="1.000000" stroke="none" 
	d="
M28.979031,77.737259 
	C28.685350,77.866798 28.339703,77.723022 27.990171,77.273956 
	C28.299879,77.133759 28.613472,77.298851 28.979031,77.737259 
z"/>
<path fill="#605A53" opacity="1.000000" stroke="none" 
	d="
M36.981117,86.736084 
	C36.691360,86.864822 36.351692,86.719513 36.003395,86.272552 
	C36.306915,86.134613 36.619061,86.298317 36.981117,86.736084 
z"/>
<path fill="#6A604F" opacity="1.000000" stroke="none" 
	d="
M381.589874,78.259079 
	C381.476990,79.145920 381.036407,80.044174 380.282959,80.966873 
	C379.871857,79.833183 379.873169,78.722351 381.589874,78.259079 
z"/>
<path fill="#C39227" opacity="1.000000" stroke="none" 
	d="
M350.260986,78.924591 
	C349.336884,78.660843 348.914948,78.039635 349.120270,77.225708 
	C349.323029,76.421738 349.945129,76.595581 350.790771,76.917122 
	C350.877411,77.590950 350.692352,78.165100 350.260986,78.924591 
z"/>
<path fill="#C39227" opacity="1.000000" stroke="none" 
	d="
M352.307983,85.251846 
	C352.153412,84.435341 352.312073,83.883354 352.716064,83.169739 
	C353.133392,82.892441 353.305389,82.776764 353.738525,82.829971 
	C353.882111,83.532692 353.764618,84.066528 353.437378,84.782402 
	C353.025513,85.148415 352.823364,85.332390 352.307983,85.251846 
z"/>
<path fill="#C39227" opacity="1.000000" stroke="none" 
	d="
M349.265442,81.935455 
	C347.915894,81.162537 348.866150,80.704376 349.746796,80.059219 
	C349.832581,80.547165 349.674103,81.144142 349.265442,81.935455 
z"/>
<path fill="#575557" opacity="1.000000" stroke="none" 
	d="
M354.303223,79.425278 
	C355.020264,79.694275 355.092651,80.209625 354.531799,80.730942 
	C354.384308,80.376480 354.236816,80.022011 354.303223,79.425278 
z"/>
<path fill="#53545A" opacity="1.000000" stroke="none" 
	d="
M351.972443,85.328583 
	C352.199585,84.964378 352.404419,84.941429 352.918457,84.941452 
	C353.010132,85.557823 352.792633,86.151207 352.575134,86.744598 
	C352.366791,86.386345 352.158478,86.028084 351.972443,85.328583 
z"/>
<path fill="#6A604F" opacity="1.000000" stroke="none" 
	d="
M379.708618,81.104904 
	C379.851013,81.551399 379.719177,82.127129 379.302612,82.830627 
	C379.156738,82.383652 379.295563,81.808899 379.708618,81.104904 
z"/>
<path fill="#53545A" opacity="1.000000" stroke="none" 
	d="
M351.598755,88.683144 
	C351.300476,88.509995 351.093689,88.171066 351.598755,88.683144 
z"/>
<path fill="#5D5955" opacity="1.000000" stroke="none" 
	d="
M348.180847,83.981041 
	C348.031616,83.725372 348.195831,83.499390 348.669647,83.294647 
	C348.778748,83.517326 348.617065,83.748940 348.180847,83.981041 
z"/>
<path fill="#575557" opacity="1.000000" stroke="none" 
	d="
M353.937469,82.754654 
	C353.826660,83.006950 353.653748,83.015053 353.221100,83.015633 
	C353.205597,82.731255 353.143494,81.891823 353.937469,82.754654 
z"/>
<path fill="#575557" opacity="1.000000" stroke="none" 
	d="
M355.295227,77.756660 
	C355.247833,77.478081 355.352509,77.368675 355.457214,77.259270 
	C355.558350,77.371811 355.739899,77.485695 355.738037,77.596527 
	C355.736206,77.707886 355.551697,77.816185 355.295227,77.756660 
z"/>
<path fill="#615B53" opacity="1.000000" stroke="none" 
	d="
M407.303131,83.034866 
	C406.950531,82.064896 407.154694,81.260185 408.613708,81.037331 
	C408.501465,81.689613 408.057678,82.364365 407.303131,83.034866 
z"/>
<path fill="#615B53" opacity="1.000000" stroke="none" 
	d="
M406.305725,84.822754 
	C406.173096,84.377930 406.331207,83.814056 406.757477,83.115463 
	C406.882568,83.555069 406.739532,84.129387 406.305725,84.822754 
z"/>
<path fill="#B88C2C" opacity="1.000000" stroke="none" 
	d="
M211.339798,83.185677 
	C209.964935,82.314957 209.785629,81.249756 210.212448,80.040848 
	C210.268951,79.880829 210.795044,79.708221 210.972855,79.798645 
	C212.049423,80.346092 211.968079,81.390213 211.952667,82.741348 
	C211.936691,83.099396 211.524719,83.333961 211.339798,83.185677 
z"/>
<path fill="#51525A" opacity="1.000000" stroke="none" 
	d="
M211.944580,87.074402 
	C212.096268,86.294014 212.268341,85.880516 212.440430,85.467026 
	C213.304153,86.355362 213.538300,87.579918 212.745499,88.342361 
	C212.078613,88.983673 212.240784,87.771141 211.944580,87.074402 
z"/>
<path fill="#B88C2C" opacity="1.000000" stroke="none" 
	d="
M206.733551,82.344994 
	C207.534836,82.196869 207.828995,82.511414 207.765198,83.108116 
	C207.751343,83.237686 207.558426,83.348106 207.447998,83.467339 
	C207.145813,83.143227 206.843643,82.819115 206.733551,82.344994 
z"/>
<path fill="#B88C2C" opacity="1.000000" stroke="none" 
	d="
M207.063812,77.979767 
	C206.954041,78.546272 207.150909,79.339676 206.257568,79.370041 
	C206.048630,79.377151 205.826691,79.001915 205.610733,78.802597 
	C205.892242,78.518906 206.173767,78.235214 206.727921,77.920708 
	C207.000549,77.889885 207.029205,77.962112 207.063812,77.979767 
z"/>
<path fill="#51525A" opacity="1.000000" stroke="none" 
	d="
M211.159576,83.285660 
	C211.154877,83.037392 211.546616,83.060799 211.741653,83.080093 
	C211.781921,83.426826 211.950531,84.329063 211.159576,83.285660 
z"/>
<path fill="#C39227" opacity="1.000000" stroke="none" 
	d="
M94.040970,79.520477 
	C96.682312,80.360886 97.653198,82.587036 97.959564,85.586670 
	C94.894707,85.050613 94.666458,82.314491 94.040970,79.520477 
z"/>
<path fill="#615B53" opacity="1.000000" stroke="none" 
	d="
M82.579468,89.152924 
	C81.010468,88.934479 81.043335,87.858650 81.128273,86.725204 
	C82.588737,86.783585 82.720680,87.815079 82.579468,89.152924 
z"/>
<path fill="#4F505B" opacity="1.000000" stroke="none" 
	d="
M76.121391,86.675186 
	C75.682388,86.493698 75.322479,85.977478 74.977585,85.128677 
	C75.395226,85.310883 75.797859,85.825668 76.121391,86.675186 
z"/>
<path fill="#615B53" opacity="1.000000" stroke="none" 
	d="
M79.288193,83.522964 
	C79.592133,83.736809 79.664505,84.114952 79.736870,84.493095 
	C79.057602,84.606476 79.104073,84.107231 79.288193,83.522964 
z"/>
<path fill="#C49326" opacity="1.000000" stroke="none" 
	d="
M502.053955,86.340698 
	C503.414520,85.431091 504.828857,84.862785 506.415955,84.225067 
	C505.075409,88.031075 505.075409,88.031075 502.053955,86.340698 
z"/>
<path fill="#615B53" opacity="1.000000" stroke="none" 
	d="
M501.756592,83.579514 
	C501.912079,83.247940 502.193726,83.111420 502.489044,83.017929 
	C502.513611,83.010155 502.630219,83.292953 502.704041,83.440750 
	C502.431458,83.555771 502.158905,83.670776 501.756592,83.579514 
z"/>
<path fill="#615B53" opacity="1.000000" stroke="none" 
	d="
M503.404114,81.745438 
	C503.369629,81.477188 503.476685,81.377373 503.583710,81.277557 
	C503.677917,81.389435 503.851105,81.506386 503.844360,81.611771 
	C503.837494,81.718430 503.652527,81.813644 503.404114,81.745438 
z"/>
<path fill="#605A53" opacity="1.000000" stroke="none" 
	d="
M508.670258,81.854134 
	C508.935303,81.465080 509.245148,81.298531 509.554993,81.131981 
	C509.564880,81.376869 509.574768,81.621750 509.371765,82.019485 
	C509.158844,82.172340 508.715088,82.076645 508.670258,81.854134 
z"/>
<path fill="#605A53" opacity="1.000000" stroke="none" 
	d="
M509.026855,82.035843 
	C508.858063,82.336342 508.557251,82.500343 508.256470,82.664337 
	C508.248383,82.433113 508.240326,82.201904 508.428833,81.801155 
	C508.625427,81.631622 508.894836,81.899338 509.026855,82.035843 
z"/>
<path fill="#605A53" opacity="1.000000" stroke="none" 
	d="
M510.429626,79.424301 
	C510.684998,79.403343 510.871277,79.575974 510.841217,79.631531 
	C510.617676,80.044563 510.405273,80.011787 510.429626,79.424301 
z"/>
<path fill="#C49326" opacity="1.000000" stroke="none" 
	d="
M501.999634,86.000305 
	C501.999237,86.000610 501.502594,86.001648 501.254333,86.003571 
	C501.006104,86.005493 501.000000,86.000092 500.997864,85.997299 
	C501.177551,85.649818 501.350403,85.282890 501.911560,85.830856 
	C502.000183,85.999390 502.000000,86.000000 501.999634,86.000305 
z"/>
<path fill="#C69425" opacity="1.000000" stroke="none" 
	d="
M97.951424,77.533478 
	C98.103676,77.161980 98.287987,77.113548 98.755760,77.025314 
	C100.130852,77.834557 100.584198,79.052063 100.993622,80.643433 
	C100.857460,81.106247 100.688332,81.239586 100.256828,81.184479 
	C99.322304,79.950706 97.785660,79.459122 97.951424,77.533478 
z"/>
<path fill="#C69425" opacity="1.000000" stroke="none" 
	d="
M104.346710,80.114975 
	C103.129135,79.315765 102.634598,78.432373 103.595963,77.600990 
	C104.203255,77.075806 104.716667,77.686859 104.973160,78.672119 
	C105.309547,79.489952 105.205521,79.906281 104.346710,80.114975 
z"/>
<path fill="#C69425" opacity="1.000000" stroke="none" 
	d="
M107.183357,85.075844 
	C107.757202,84.252892 108.314789,84.167168 108.606186,84.904549 
	C108.721657,85.196724 108.458366,85.849724 108.168404,86.049660 
	C107.429932,86.558861 107.156036,86.054474 107.183357,85.075844 
z"/>
<path fill="#C39227" opacity="1.000000" stroke="none" 
	d="
M100.028534,81.285675 
	C100.166412,80.993988 100.338379,80.991943 100.768463,80.981407 
	C101.590698,81.387009 102.081398,81.984077 101.329300,82.465782 
	C100.603622,82.930588 100.232750,82.248337 100.028534,81.285675 
z"/>
<path fill="#C39227" opacity="1.000000" stroke="none" 
	d="
M104.143135,80.231544 
	C104.255440,79.812340 104.523422,79.618515 104.904709,79.199745 
	C105.575844,79.338562 105.999763,79.826881 105.486015,80.430939 
	C105.315628,80.631264 104.707054,80.458900 104.143135,80.231544 
z"/>
<path fill="#C69425" opacity="1.000000" stroke="none" 
	d="
M106.287933,82.392967 
	C106.156914,82.559433 105.929222,82.584229 105.701538,82.609024 
	C105.864784,82.489784 106.028030,82.370537 106.287933,82.392967 
z"/>
<path fill="#C39227" opacity="1.000000" stroke="none" 
	d="
M27.592295,82.707672 
	C29.134535,84.540283 31.560266,85.097504 32.544655,87.991608 
	C29.461143,87.795876 28.215424,85.900162 27.036715,83.497780 
	C27.090794,82.971695 27.191315,82.782288 27.592295,82.707672 
z"/>
<path fill="#C39227" opacity="1.000000" stroke="none" 
	d="
M23.970829,84.705887 
	C23.110098,84.938957 22.293892,84.759766 22.046936,83.392044 
	C21.871487,82.889984 21.728127,82.705231 21.817451,82.257965 
	C23.080914,82.475868 23.793079,83.210045 23.970829,84.705887 
z"/>
<path fill="#5D5955" opacity="1.000000" stroke="none" 
	d="
M26.375229,89.011368 
	C25.466953,88.198410 24.919991,87.439651 24.244801,86.434998 
	C26.223255,86.024544 27.322115,86.777939 26.375229,89.011368 
z"/>
<path fill="#605A53" opacity="1.000000" stroke="none" 
	d="
M27.780121,82.579582 
	C27.892754,82.822449 27.438519,82.983063 27.214396,83.072083 
	C26.604879,82.758507 26.219486,82.355911 25.968624,81.414795 
	C26.624601,81.363091 27.146046,81.849899 27.780121,82.579582 
z"/>
<path fill="#5D5955" opacity="1.000000" stroke="none" 
	d="
M19.082008,79.715660 
	C18.601999,79.559448 18.200294,79.088676 17.888775,78.295715 
	C18.372742,78.449387 18.766527,78.925247 19.082008,79.715660 
z"/>
<path fill="#5D5955" opacity="1.000000" stroke="none" 
	d="
M21.898157,81.793945 
	C22.037325,82.174942 22.024515,82.354408 22.013275,82.804306 
	C21.657581,82.578629 21.300320,82.082520 20.956200,81.270294 
	C21.228287,81.166931 21.487232,81.379677 21.898157,81.793945 
z"/>
<path fill="#605A53" opacity="1.000000" stroke="none" 
	d="
M25.784260,81.267624 
	C25.251402,81.144135 24.546324,81.092201 24.786886,80.343544 
	C24.812700,80.263214 25.484255,80.390381 25.979710,80.648788 
	C26.103157,80.876274 25.888288,81.135338 25.784260,81.267624 
z"/>
<path fill="#5D5955" opacity="1.000000" stroke="none" 
	d="
M20.863888,80.764465 
	C20.425352,80.895035 19.803476,80.761734 19.075714,80.312294 
	C19.540068,80.164299 20.110306,80.332436 20.863888,80.764465 
z"/>
<path fill="#5D5955" opacity="1.000000" stroke="none" 
	d="
M17.958168,77.760132 
	C17.666319,77.888741 17.311768,77.750832 16.965569,77.299210 
	C17.281101,77.154861 17.588284,77.324234 17.958168,77.760132 
z"/>
<path fill="#C29127" opacity="1.000000" stroke="none" 
	d="
M401.098999,84.086380 
	C401.333588,80.432716 404.256775,78.394150 405.713013,75.237366 
	C406.405090,78.789330 404.120331,81.569588 402.264832,84.808479 
	C401.722534,84.785324 401.460663,84.558174 401.098999,84.086380 
z"/>
<path fill="#3E4763" opacity="1.000000" stroke="none" 
	d="
M396.984192,74.459763 
	C398.242218,74.551308 397.843231,75.508171 397.746704,76.678680 
	C397.238525,77.326050 396.778259,77.644524 396.056671,78.078522 
	C396.166504,77.064331 396.537659,75.934601 396.984192,74.459763 
z"/>
<path fill="#5B5855" opacity="1.000000" stroke="none" 
	d="
M333.603882,76.080780 
	C333.328888,79.106697 332.679657,82.152023 332.056519,85.599487 
	C331.639191,86.330185 331.195770,86.658737 330.461609,87.015884 
	C331.143188,83.383171 330.809662,79.356888 333.603882,76.080780 
z"/>
<path fill="#3E4763" opacity="1.000000" stroke="none" 
	d="
M337.757172,75.095673 
	C338.007294,76.293236 337.984741,77.742790 337.908752,79.620117 
	C337.314545,80.628197 336.773773,81.208496 335.921692,81.798477 
	C336.235107,79.654655 336.859802,77.501152 337.757172,75.095673 
z"/>
<path fill="#4F505B" opacity="1.000000" stroke="none" 
	d="
M338.964996,82.316368 
	C339.467072,81.092354 340.010681,80.162964 340.809174,79.034996 
	C341.192566,78.989098 341.321045,79.141777 341.462433,79.593491 
	C341.062622,81.057594 340.649902,82.222656 340.058838,83.715622 
	C339.589111,83.566002 339.297821,83.088501 338.964996,82.316368 
z"/>
<path fill="#BF8F29" opacity="1.000000" stroke="none" 
	d="
M342.120239,86.074333 
	C342.631409,85.125870 342.863251,85.569420 343.044861,86.419144 
	C342.705444,86.701820 342.430695,86.585716 342.120239,86.074333 
z"/>
<path fill="#6A604F" opacity="1.000000" stroke="none" 
	d="
M384.788635,80.780510 
	C384.942291,81.280495 384.843262,82.031616 384.379272,82.902527 
	C384.188171,82.358765 384.362030,81.695206 384.788635,80.780510 
z"/>
<path fill="#6A604F" opacity="1.000000" stroke="none" 
	d="
M383.769318,83.125092 
	C384.056976,83.448318 384.086975,83.892883 384.060730,84.674782 
	C383.096130,84.631218 382.985474,84.027695 383.769318,83.125092 
z"/>
<path fill="#70634C" opacity="1.000000" stroke="none" 
	d="
M389.588257,81.202408 
	C389.489532,82.105904 389.052429,83.025047 388.297607,83.973404 
	C387.899414,82.844673 387.738922,81.650200 389.588257,81.202408 
z"/>
<path fill="#4F505B" opacity="1.000000" stroke="none" 
	d="
M390.721680,77.093582 
	C391.326111,77.960449 391.046021,78.859718 390.273804,79.952042 
	C388.372528,78.932816 389.333038,78.068382 390.721680,77.093582 
z"/>
<path fill="#70634C" opacity="1.000000" stroke="none" 
	d="
M387.716248,84.112473 
	C387.859680,84.572105 387.723083,85.163780 387.292053,85.881424 
	C387.143829,85.419762 387.290039,84.832138 387.716248,84.112473 
z"/>
<path fill="#BF8F29" opacity="1.000000" stroke="none" 
	d="
M342.310181,76.857788 
	C340.773987,75.946686 340.538483,74.916779 342.679626,74.040390 
	C342.861938,74.872383 342.714539,75.753906 342.310181,76.857788 
z"/>
<path fill="#BF8F29" opacity="1.000000" stroke="none" 
	d="
M344.734222,80.817284 
	C344.728546,81.754898 345.650696,83.179886 344.122253,83.202652 
	C343.325897,83.214516 342.966888,82.218552 343.756592,81.166908 
	C344.160004,80.887672 344.321442,80.775032 344.734222,80.817284 
z"/>
<path fill="#575557" opacity="1.000000" stroke="none" 
	d="
M345.317169,76.807617 
	C345.631592,77.179787 345.852203,77.786324 345.791229,78.363083 
	C345.743042,78.818741 345.287628,78.843109 345.179504,78.423431 
	C345.065582,77.981354 345.120667,77.495728 345.317169,76.807617 
z"/>
<path fill="#BF8F29" opacity="1.000000" stroke="none" 
	d="
M341.631622,79.692932 
	C341.384064,79.725731 341.292755,79.558937 341.132751,79.114288 
	C341.159180,78.543266 341.338470,78.316643 341.805237,78.067123 
	C341.934998,78.482903 341.861450,78.988113 341.631622,79.692932 
z"/>
<path fill="#575557" opacity="1.000000" stroke="none" 
	d="
M344.924225,80.736923 
	C344.985596,80.972168 344.492676,81.006599 344.245636,81.003448 
	C344.240936,80.754822 344.083160,79.815773 344.924225,80.736923 
z"/>
</svg>