<?xml version="1.0" encoding="utf-8"?>
<!-- Generator: Adobe Illustrator 26.5.0, SVG Export Plug-In . SVG Version: 6.00 Build 0)  -->
<svg version="1.1" id="Layer_1" xmlns="http://www.w3.org/2000/svg" xmlns:xlink="http://www.w3.org/1999/xlink" x="0px" y="0px"
	 viewBox="0 0 614 100" style="enable-background:new 0 0 614 100;" xml:space="preserve">
<style type="text/css">
	.st0{fill:#3DA9DA;}
	.st1{fill-rule:evenodd;clip-rule:evenodd;fill:#3DA9DA;}
	.st2{fill:#242424;}
</style>
<g id="Artboard">
	<g id="Group-5">
		<g id="Group-Copy-4">
			<path id="Rectangle" class="st0" d="M100,0v100H0V0H100z M92.3,7.7H7.7v84.6h84.6V7.7z"/>
			<path id="Shape" class="st1" d="M38.5,76.9v7.7h-7.7v-7.7H38.5z M30.8,53.8v-7.7h7.7v-7.7h7.7v-7.7h7.7v-7.7h7.7v15.4h-7.7v7.7
				h15.4v7.7h-7.7v7.7h-7.7v7.7h-7.7v7.7h-7.7V61.5h7.7v-7.7H30.8z M69.2,15.4v7.7h-7.7v-7.7H69.2z"/>
		</g>
		<g id="Group-4" transform="translate(118.000000, 22.000000)">
			<g id="Group-3" transform="translate(136.965732, 1.513514)">
				<path id="Path" class="st2" d="M18.6,53.5c6,0,10.6-1.4,13.8-4.3c3.2-2.9,4.8-7.1,4.8-12.6c0-2.2-0.3-4.1-0.8-5.7
					c-0.5-1.6-1.4-3-2.6-4.2s-2.7-2.2-4.5-2.9s-4-1.4-6.6-2l0,0l-4.8-1c-1.9-0.4-3.2-1-4-1.9s-1.2-2.2-1.2-3.9c0-2,0.5-3.4,1.6-4.3
					s2.8-1.3,5.2-1.3c2.2,0,4.1,0.4,5.8,1.1s3.1,1.9,4.4,3.5l0,0l6.9-6.8C32.6,2.4,27,0,19.5,0C13.7,0,9.3,1.3,6.3,3.9
					s-4.5,6.5-4.5,11.5c0,4.4,1.1,7.7,3.4,10.2s5.9,4.1,10.7,5l0,0l4.8,0.9c1.9,0.4,3.3,1.1,4.2,2.1c0.9,1,1.4,2.4,1.4,4.2
					c0,4.4-2.5,6.5-7.5,6.5c-4.9,0-8.8-1.9-11.8-5.7l0,0L0,45.4C4.5,50.8,10.7,53.5,18.6,53.5z"/>
				<polygon id="Path_00000083801750495315472530000010486375296319180977_" class="st2" points="55.9,52.7 55.9,31.1 73.4,31.1 
					73.4,52.7 84.2,52.7 84.2,0.9 73.4,0.9 73.4,21.9 55.9,21.9 55.9,0.9 45.1,0.9 45.1,52.7 				"/>
				<path id="Combined-Shape" class="st2" d="M113.5,0c3.2,0,6,0.5,8.6,1.4c2.6,1,4.8,2.5,6.6,4.7c1.8,2.2,3.2,4.9,4.2,8.3
					c1,3.4,1.5,7.5,1.5,12.3s-0.5,9-1.5,12.3c-1,3.4-2.4,6.2-4.2,8.3c-1.8,2.2-4,3.7-6.6,4.7c-2.6,1-5.4,1.4-8.6,1.4s-6-0.5-8.6-1.4
					c-2.6-1-4.8-2.5-6.6-4.7c-1.8-2.2-3.2-4.9-4.2-8.3s-1.5-7.5-1.5-12.3s0.5-9,1.5-12.3s2.4-6.2,4.2-8.3s4-3.7,6.6-4.7
					C107.5,0.5,110.3,0,113.5,0z M113.5,9.3c-3,0-5.3,0.9-7,2.7s-2.5,4.4-2.5,8l0,0v13.5l0,0.4c0.1,3.4,0.9,5.9,2.4,7.6
					c1.6,1.8,4,2.7,7,2.7s5.3-0.9,7-2.7s2.5-4.4,2.5-8l0,0V20l0-0.4c-0.1-3.4-0.9-5.9-2.4-7.6C118.8,10.2,116.5,9.3,113.5,9.3z"/>
				<path id="Path_00000014630907869869464080000018262859423265531008_" class="st2" d="M162.1,53.5c2.4,0,4.5-0.3,6.3-0.8
					c1.9-0.5,3.5-1.3,4.9-2.4s2.7-2.4,3.8-3.9s2.1-3.3,3-5.2l0,0l-8.9-5c-0.4,1.1-0.8,2.2-1.2,3.2c-0.5,1-1,1.8-1.7,2.5
					s-1.6,1.3-2.6,1.7s-2.2,0.6-3.7,0.6c-3,0-5.4-0.9-7.1-2.7c-1.7-1.8-2.6-4.4-2.6-8l0,0V20c0-3.6,0.9-6.2,2.6-8
					c1.7-1.8,4.1-2.7,7.1-2.7c1.4,0,2.6,0.2,3.6,0.6c1,0.4,1.8,0.9,2.5,1.5c0.7,0.6,1.2,1.4,1.5,2.4c0.4,0.9,0.7,2,1,3l0,0l9.4-4.7
					c-1.8-4.1-4-7.1-6.7-9.1s-6.5-3-11.2-3c-3.2,0-6,0.5-8.6,1.5c-2.6,1-4.8,2.6-6.6,4.8s-3.3,5-4.3,8.4c-1,3.4-1.5,7.6-1.5,12.4
					s0.5,8.9,1.5,12.3c1,3.4,2.5,6.1,4.3,8.2c1.8,2.1,4,3.6,6.6,4.5C156.1,53.1,159,53.5,162.1,53.5z"/>
				<polygon id="Path_00000147919113205865432940000001809419191247109266_" class="st2" points="198,52.7 198,37.9 204.1,29.7 
					216.3,52.7 229,52.7 211.7,22.5 227.7,0.9 215.4,0.9 204,17.7 198.8,25.9 197.6,25.9 198,17.7 198,0.9 187.2,0.9 187.2,52.7 
									"/>
				<polygon id="Path_00000065052887569793453220000015020960681725075622_" class="st2" points="267.3,52.7 267.3,43.4 245.5,43.4 
					245.5,31.1 264,31.1 264,21.9 245.5,21.9 245.5,10.2 267.3,10.2 267.3,0.9 234.7,0.9 234.7,52.7 				"/>
				<path id="Combined-Shape_00000109726593488219160890000013202663238226353799_" class="st2" d="M298.9,0.9l0.4,0
					c4.5,0.1,8,1.5,10.3,4.4c2.5,2.9,3.7,6.8,3.7,11.7c0,3.8-0.7,7-2.2,9.6s-3.6,4.4-6.5,5.5l0,0l9.2,20.5h-11.7l-8.1-19.6h-7.2
					v19.6h-10.8V0.9H298.9z M297.6,10.2h-10.6v14.1h10.6c1.5,0,2.6-0.4,3.4-1.1c0.8-0.7,1.2-2,1.2-3.7l0,0V15l0-0.3
					c0-1.6-0.5-2.8-1.2-3.4C300.2,10.5,299,10.2,297.6,10.2L297.6,10.2z"/>
				<path id="Path_00000016787449913445864880000001969835827211612291_" class="st2" d="M337.5,53.5c6,0,10.6-1.4,13.8-4.3
					c3.2-2.9,4.8-7.1,4.8-12.6c0-2.2-0.3-4.1-0.8-5.7c-0.5-1.6-1.4-3-2.6-4.2s-2.7-2.2-4.5-2.9s-4-1.4-6.6-2l0,0l-4.8-1
					c-1.9-0.4-3.2-1-4-1.9c-0.8-0.9-1.2-2.2-1.2-3.9c0-2,0.5-3.4,1.6-4.3c1.1-0.9,2.8-1.3,5.2-1.3c2.2,0,4.1,0.4,5.8,1.1
					c1.6,0.8,3.1,1.9,4.4,3.5l0,0l6.9-6.8c-3.9-4.7-9.5-7.1-17-7.1c-5.8,0-10.3,1.3-13.3,3.9s-4.5,6.5-4.5,11.5
					c0,4.4,1.1,7.7,3.4,10.2s5.9,4.1,10.7,5l0,0l4.8,0.9c1.9,0.4,3.3,1.1,4.2,2.1c0.9,1,1.4,2.4,1.4,4.2c0,4.4-2.5,6.5-7.5,6.5
					c-4.9,0-8.8-1.9-11.8-5.7l0,0l-6.9,6.8C323.5,50.8,329.6,53.5,337.5,53.5z"/>
			</g>
			<g id="Group-2">
				<path id="Shape_00000048497432037701477870000017121839025362103442_" class="st2" d="M16.5,3.1l0.6,0
					c5.8,0.1,10.3,2.2,13.5,6.2c3.3,4.1,5,10.7,5,19.7s-1.7,15.6-5,19.7c-3.2,4-7.7,6.1-13.5,6.2l-0.6,0H0V3.1H16.5z M16.5,8.3H6
					v41.4h10.5c3.8,0,6.8-1.3,9.1-3.9c2.2-2.5,3.4-5.9,3.5-10.4l0-0.6V23.2l0-0.6c-0.1-4.5-1.3-8-3.5-10.4S20.5,8.4,17,8.3L16.5,8.3
					z"/>
				<path id="Path_00000013162384932401071590000016465827886058216080_" class="st2" d="M56,55.8c2.7,0,4.9-0.6,6.4-1.8
					c1.6-1.2,2.8-3,3.5-5.3l0,0h0.8v6.2h5.7V16.6h-5.7v26.1c0,2.5-0.8,4.5-2.4,5.9c-1.6,1.4-3.6,2.1-5.9,2.1c-2.7,0-4.6-0.8-5.9-2.4
					c-1.3-1.6-1.9-4-1.9-7l0,0V16.6h-5.7v24.9c0,4.8,1,8.4,3,10.8C49.8,54.6,52.6,55.8,56,55.8z"/>
				<path id="Shape_00000183229243993304420590000012806971436192765312_" class="st2" d="M95.2,15.8c4.4,0,7.8,1.1,10.1,3.2
					c2.2,2,3.3,4.9,3.4,8.8l0,0.5v21.7h3.9v5h-4.1l-0.4,0c-3.4-0.1-5.1-1.8-5.2-5.1l0-0.3v-0.7h-0.8l-0.1,0.5
					c-0.7,2.1-1.8,3.7-3.4,4.8c-1.7,1.2-3.8,1.8-6.2,1.8c-3.8,0-6.6-0.9-8.4-2.8c-1.9-1.9-2.8-4.6-2.8-8.3c0-3.6,1.2-6.4,3.6-8.5
					c2.3-2,5.8-3,10.6-3.1l0.6,0h7v-4.2l0-0.5c-0.1-2.6-0.7-4.5-1.9-5.7c-1.3-1.3-3.3-2-6.1-2c-2.3,0-4.1,0.5-5.5,1.4
					c-1.3,0.9-2.4,2.1-3.3,3.7l-0.3,0.5l-3.4-3.1l0.2-0.4c1-1.9,2.5-3.5,4.6-4.8C89.5,16.5,92.1,15.8,95.2,15.8z M102.9,37.4h-7.2
					l-0.6,0c-2.7,0.1-4.7,0.6-6,1.5c-1.3,0.9-2,2.2-2.1,3.9l0,0.4v2.1l0,0.4c0.1,1.7,0.7,3,1.8,3.9c1.2,0.9,2.8,1.4,4.9,1.4
					c1.3,0,2.5-0.2,3.7-0.7c1.1-0.4,2.1-1,2.9-1.7s1.4-1.5,1.9-2.4c0.4-0.8,0.6-1.6,0.7-2.4l0-0.4V37.4z"/>
				<path id="Path_00000176734795455370319770000015557242712787946124_" class="st2" d="M131,54.9v-5h-4.9V0h-5.7v49.1
					c0,2,0.5,3.5,1.4,4.4c0.9,0.9,2.4,1.4,4.5,1.4l0,0H131z"/>
			</g>
		</g>
	</g>
</g>
</svg>
