<?xml version="1.0" encoding="UTF-8"?><svg id="Layer_2" xmlns="http://www.w3.org/2000/svg" viewBox="0 0 240 162.2827"><g id="Components"><g id="aee31e8b-723c-434a-8400-895d47749573_7"><path d="m76.3423,64.8719h-24.2153c-10.7335,0-15.5173-4.3097-15.5173-13.9998,0-4.8051,0-19.4085,35.6256-19.4085h24.1832L127.8823,0h-55.647C25.217,0,1.3706,17.1161,1.3706,50.872c0,30.8899,17.0749,46.541,50.7563,46.541h24.2153c16.4415,0,18.5421,7.477,18.5421,14.0001,0,5.0672,0,20.4928-32.2676,20.4928-10.5496,0-29.1606-3.4021-37.9984-4.3072L0,155.7317c22.755,2.2526,43.1281,4.3028,62.3174,4.3028,45.0993,0,67.8151-14.1518,67.8151-48.6213,0-30.8808-18.0994-46.5413-53.7903-46.5413Z" style="fill:#fff;"/><path d="m190.0884,94.1862c23.7319-7.1448,34.5968-29.5198,34.5968-48.398,0-29.9527-17.5101-45.7882-50.6414-45.7882h-28.714l-31.4636,31.4636h58.3392c10.5793,0,15.9463,5.116,15.9463,15.1888,0,18.977-16.0382,28.5983-47.6729,28.5983h-6.0988l3.4088,5.1983,56.9154,80.447.9909,1.3868h44.3048l-3.8373-5.2471-46.0743-62.8494Z" style="fill:#d9a32e;"/></g></g></svg>